<svg viewBox="0 0 432 64" fill="none" xmlns="http://www.w3.org/2000/svg"><path d="M432 56h-8.092V20.504L408.88 56h-7.072l-14.892-35.36V56h-7.956V7.788h10.88l15.64 36.788 15.436-36.788H432V56Z" fill="#F6F2E7"/><path d="M367.387 56h-8.092V20.504L344.267 56h-7.072l-14.892-35.36V56h-7.956V7.788h10.88l15.64 36.788 15.436-36.788h11.084V56Z" fill="#F6F2E7"/><path d="m298.983 56-4.556-12.104h-20.4L269.539 56h-8.636l18.768-48.212h9.452L307.891 56h-8.908Zm-14.756-39.372-7.344 19.72h14.688l-7.344-19.72Z" fill="#F6F2E7"/><path d="m224.615 43.284 9.452-35.496h8.432L228.967 56h-8.432l-11.696-36.448L197.143 56h-8.364L175.111 7.788h8.568l9.656 35.224 11.288-35.224h8.5l11.492 35.496Z" fill="#F6F2E7"/><path d="M157.22 49.948c4.896 0 9.248-3.604 9.248-10.54 0-6.868-4.352-10.404-9.248-10.404-4.828 0-9.248 3.536-9.248 10.404s4.42 10.54 9.248 10.54Zm0-28.084c9.928 0 17.204 7.412 17.204 17.544 0 10.2-7.276 17.612-17.204 17.612-9.86 0-17.136-7.412-17.136-17.612 0-10.132 7.276-17.544 17.136-17.544Z" fill="#F6F2E7"/><path d="M112.393 57.02c-12.988 0-24.344-9.384-24.344-25.092 0-15.708 11.764-25.16 24.276-25.16 12.24 0 19.516 7.208 21.692 15.64l-7.684 2.584c-1.428-5.848-5.916-10.54-14.008-10.54-7.956 0-15.912 5.78-15.912 17.476 0 11.288 7.752 17.272 15.98 17.272 8.092 0 12.716-5.168 14.348-10.608l7.48 2.448c-2.176 8.16-9.52 15.98-21.828 15.98Z" fill="#F6F2E7"/><path d="M64 0H52.284a16 16 0 0 0-11.313 4.686L28.687 16.971A24 24 0 0 1 11.715 24H0v16h11.716a16 16 0 0 0 11.313-4.686l12.284-12.285A24 24 0 0 1 52.284 16H64V0Z" fill="#F6F2E7"/><path d="M64 24H52.284a16 16 0 0 0-11.313 4.686L28.687 40.971A24 24 0 0 1 11.715 48H0v16h11.716a16 16 0 0 0 11.313-4.686l12.284-12.285A24 24 0 0 1 52.284 40H64V24Z" fill="#F6F2E7"/><path d="M64 48H52.284a16 16 0 0 0-11.313 4.686L29.657 64H64V48Z" fill="#F6F2E7"/><path d="M0 16h11.716a16 16 0 0 0 11.313-4.686L34.343 0H0v16Z" fill="#F6F2E7"/></svg>