<svg viewBox="0 0 350 262" fill="none" xmlns="http://www.w3.org/2000/svg"><g clip-path="url(#a)"><path fill="#BBB6AF" d="M0 0h350v262H0z"/><path d="M231 178.004h20.022a38.573 38.573 0 0 0 27.276-11.298l24.408-24.408A38.575 38.575 0 0 1 329.982 131h20.022" stroke="#CFCAC2" stroke-width="18"/><path d="M112 178.004h20.022a38.573 38.573 0 0 0 27.276-11.298l24.408-24.408A38.575 38.575 0 0 1 210.982 131h20.022" stroke="#CFCAC2" stroke-width="18"/><path d="M-7 178.004h20.022a38.574 38.574 0 0 0 27.276-11.298l24.408-24.408A38.574 38.574 0 0 1 91.982 131h20.022" stroke="#CFCAC2" stroke-width="18"/><path d="M231 225.004h20.022a38.573 38.573 0 0 0 27.276-11.298l24.408-24.408A38.575 38.575 0 0 1 329.982 178h20.022" stroke="#CFCAC2" stroke-width="18"/><path d="M112 225.004h20.022a38.573 38.573 0 0 0 27.276-11.298l24.408-24.408A38.575 38.575 0 0 1 210.982 178h20.022" stroke="#CFCAC2" stroke-width="18"/><path d="M-7 225.004h20.022a38.574 38.574 0 0 0 27.276-11.298l24.408-24.408A38.574 38.574 0 0 1 91.982 178h20.022" stroke="#CFCAC2" stroke-width="18"/><path d="M231 272.004h20.022a38.573 38.573 0 0 0 27.276-11.298l24.408-24.408A38.575 38.575 0 0 1 329.982 225h20.022" stroke="#CFCAC2" stroke-width="18"/><path d="M112 272.004h20.022a38.573 38.573 0 0 0 27.276-11.298l24.408-24.408A38.575 38.575 0 0 1 210.982 225h20.022" stroke="#CFCAC2" stroke-width="18"/><path d="M-7 272.004h20.022a38.574 38.574 0 0 0 27.276-11.298l24.408-24.408A38.574 38.574 0 0 1 91.982 225h20.022" stroke="#CFCAC2" stroke-width="18"/><path d="M350 131H0" stroke="#CFCAC2" stroke-width="18"/><path d="M87 0v131" stroke="#FB50C0" stroke-width="2"/><path d="M263 0v131" stroke="#FB50C0" stroke-width="2"/><path d="M219 0v131" stroke="#FB50C0" stroke-width="2"/><path d="M241 0v131" stroke="#FB50C0" stroke-width="2"/><path d="M252 0v131" stroke="#FB50C0" stroke-width="2"/><path d="M230 0v131" stroke="#FB50C0" stroke-width="2"/><path d="M208 0v131" stroke="#FB50C0" stroke-width="2"/><path d="M186 0v131" stroke="#FB50C0" stroke-width="2"/><path d="M164 0v131" stroke="#FB50C0" stroke-width="2"/><path d="M142 0v131" stroke="#FB50C0" stroke-width="2"/><path d="M120 0v131" stroke="#FB50C0" stroke-width="2"/><path d="M98 0v131" stroke="#FB50C0" stroke-width="2"/><path d="M197 0v131" stroke="#FB50C0" stroke-width="2"/><path d="M153 0v131" stroke="#FB50C0" stroke-width="2"/><path d="M131 0v131" stroke="#FB50C0" stroke-width="2"/><path d="M109 0v131" stroke="#FB50C0" stroke-width="2"/><path fill-rule="evenodd" clip-rule="evenodd" d="M255.525 168.659c5.368-11.449 8.368-24.231 8.368-37.713C263.893 81.823 224.07 42 174.946 42 125.823 42 86 81.823 86 130.946c0 37.819 23.603 70.126 56.882 82.992a29.55 29.55 0 0 0 10.052-6.596l24.408-24.408A47.574 47.574 0 0 1 210.982 169h20.022v.004h20.018c1.517 0 3.022-.116 4.503-.345Z" fill="#F6F2E7"/><path fill-rule="evenodd" clip-rule="evenodd" d="M214.599 169c9.48-9.875 15.306-23.284 15.306-38.054 0-30.353-24.606-54.959-54.959-54.959s-54.958 24.606-54.958 54.959c0 30.162 24.297 54.649 54.386 54.956l2.968-2.968A47.574 47.574 0 0 1 210.982 169h3.617Z" fill="#FE970C"/><path d="M175 0v76" stroke="#FB50C0" stroke-width="2"/><path d="M175 124V76" stroke="#F6F2E7" stroke-width="2"/><path d="M163 124h24l-12 24-12-24Z" fill="#F6F2E7"/></g><defs><clipPath id="a"><path fill="#fff" d="M0 0h350v262H0z"/></clipPath></defs></svg>