<svg viewBox="0 0 350 262" fill="none" xmlns="http://www.w3.org/2000/svg"><g clip-path="url(#a)"><path fill="#BBB6AF" d="M0 0h350v262H0z"/><path d="M175 37.004h20.022a38.573 38.573 0 0 0 27.276-11.298l24.408-24.408A38.575 38.575 0 0 1 273.982-10h20.022" stroke="#CFCAC2" stroke-width="18"/><path d="M175 84.004h20.022a38.573 38.573 0 0 0 27.276-11.298l24.408-24.408A38.575 38.575 0 0 1 273.982 37h20.022" stroke="#CFCAC2" stroke-width="18"/><path d="M175 131.004h20.022a38.573 38.573 0 0 0 27.276-11.298l24.408-24.408A38.575 38.575 0 0 1 273.982 84h20.022" stroke="#CFCAC2" stroke-width="18"/><path d="M175 178.004h20.022a38.573 38.573 0 0 0 27.276-11.298l24.408-24.408A38.575 38.575 0 0 1 273.982 131h20.022" stroke="#CFCAC2" stroke-width="18"/><path d="M175 225.004h20.022a38.573 38.573 0 0 0 27.276-11.298l24.408-24.408A38.575 38.575 0 0 1 273.982 178h20.022" stroke="#CFCAC2" stroke-width="18"/><path d="M175 272.004h20.022a38.573 38.573 0 0 0 27.276-11.298l24.408-24.408A38.575 38.575 0 0 1 273.982 225h20.022" stroke="#CFCAC2" stroke-width="18"/><path d="M56 37.004h20.022a38.574 38.574 0 0 0 27.276-11.298l24.408-24.408A38.575 38.575 0 0 1 154.982-10h20.022" stroke="#CFCAC2" stroke-width="18"/><path d="M56 84.004h20.022a38.574 38.574 0 0 0 27.276-11.298l24.408-24.408A38.575 38.575 0 0 1 154.982 37h20.022" stroke="#CFCAC2" stroke-width="18"/><path d="M56 131.004h20.022a38.574 38.574 0 0 0 27.276-11.298l24.408-24.408A38.575 38.575 0 0 1 154.982 84h20.022" stroke="#CFCAC2" stroke-width="18"/><path d="M56 178.004h20.022a38.574 38.574 0 0 0 27.276-11.298l24.408-24.408A38.575 38.575 0 0 1 154.982 131h20.022" stroke="#CFCAC2" stroke-width="18"/><path d="M56 225.004h20.022a38.574 38.574 0 0 0 27.276-11.298l24.408-24.408A38.575 38.575 0 0 1 154.982 178h20.022" stroke="#CFCAC2" stroke-width="18"/><path d="M56 272.004h20.022a38.574 38.574 0 0 0 27.276-11.298l24.408-24.408A38.575 38.575 0 0 1 154.982 225h20.022" stroke="#CFCAC2" stroke-width="18"/><path d="M56 37H0" stroke="#CFCAC2" stroke-width="18"/><path d="M350 37h-56" stroke="#CFCAC2" stroke-width="18"/><path d="M56 84H0" stroke="#CFCAC2" stroke-width="18"/><path d="M350 84h-56" stroke="#CFCAC2" stroke-width="18"/><path d="M56 131H0" stroke="#CFCAC2" stroke-width="18"/><path d="M350 131h-56" stroke="#CFCAC2" stroke-width="18"/><path d="M56 178H0" stroke="#CFCAC2" stroke-width="18"/><path d="M350 178h-56" stroke="#CFCAC2" stroke-width="18"/><path d="M56 225H0" stroke="#CFCAC2" stroke-width="18"/><path d="M350 225h-56" stroke="#CFCAC2" stroke-width="18"/><path d="M76 32h198M76 32v198m0-198 198 198m0-198v198m0-198L76 230m198 0H76" stroke="#8738EC" stroke-width="2"/><circle cx="175" cy="230" r="57" fill="#F6F2E7"/><circle cx="175" cy="230" r="35" fill="#FE970C"/><circle cx="274" cy="131" r="57" fill="#F6F2E7"/><circle cx="274" cy="131" r="35" fill="#FE970C"/><circle cx="274" cy="32" r="27" fill="#F6F2E7"/><circle cx="274" cy="32" fill="#FE970C" r="16.579"/><circle cx="274" cy="230" r="27" fill="#F6F2E7"/><circle cx="274" cy="230" fill="#FE970C" r="16.579"/><circle cx="76" cy="32" r="27" fill="#F6F2E7"/><circle cx="76" cy="32" fill="#FE970C" r="16.579"/><circle cx="76" cy="230" r="27" fill="#F6F2E7"/><circle cx="76" cy="230" fill="#FE970C" r="16.579"/><circle cx="175" cy="32" r="57" fill="#F6F2E7"/><circle cx="175" cy="32" r="35" fill="#FE970C"/><circle cx="76" cy="131" r="57" fill="#F6F2E7"/><circle cx="76" cy="131" r="35" fill="#FE970C"/><circle cx="175" cy="131" r="35" fill="#8738EC"/><path d="M165.616 135.069a4.75 4.75 0 0 1-1.651 1.771c-.711.456-1.543.738-2.469.832v3.019h-1.194v-2.993a31.435 31.435 0 0 1-1.704-.12c-.858-.067-1.489-.108-1.892-.108h-.496l-.899-4.092h.631l1.046 1.248c.51.617 1.02 1.087 1.516 1.395.497.322 1.101.524 1.798.591v-5.77a22.512 22.512 0 0 1-1.61-.563 6.16 6.16 0 0 1-1.315-.685 4.046 4.046 0 0 1-1.274-1.382c-.322-.55-.483-1.248-.483-2.093 0-.818.201-1.57.59-2.227.389-.658.939-1.181 1.65-1.597.711-.402 1.543-.631 2.496-.698v-2.978h1.194v2.978c.389.014.845.054 1.396.108.791.067 1.328.107 1.61.107h.389l.872 3.703h-.644l-.993-1.14c-.429-.497-.845-.886-1.248-1.154a3.546 3.546 0 0 0-1.382-.51v5.099l.564.201c.603.228 1.087.416 1.476.59.389.175.738.376 1.073.618 1.02.751 1.53 1.905 1.53 3.448 0 .872-.188 1.677-.577 2.402Zm-7.393-9.03c.187.308.456.563.805.764.335.202.778.416 1.328.618v-4.764c-.751.067-1.342.295-1.771.698-.443.403-.658.926-.658 1.583 0 .443.094.805.296 1.101Zm5.058 9.727c.429-.456.644-1.046.644-1.757 0-.698-.188-1.262-.577-1.678-.389-.416-1.006-.764-1.852-1.06v5.327c.765-.094 1.356-.375 1.785-.832Zm16.509-.697a4.747 4.747 0 0 1-1.65 1.771c-.711.456-1.543.738-2.469.832v3.019h-1.194v-2.993a31.366 31.366 0 0 1-1.704-.12c-.859-.067-1.49-.108-1.892-.108h-.497l-.899-4.092h.631l1.047 1.248c.509.617 1.019 1.087 1.516 1.395.496.322 1.1.524 1.798.591v-5.77a22.17 22.17 0 0 1-1.61-.563 6.137 6.137 0 0 1-1.315-.685 4.05 4.05 0 0 1-1.275-1.382c-.322-.55-.483-1.248-.483-2.093 0-.818.201-1.57.59-2.227.389-.658.94-1.181 1.651-1.597.711-.402 1.543-.631 2.495-.698v-2.978h1.195v2.978c.389.014.845.054 1.395.108.792.067 1.328.107 1.61.107h.389l.872 3.703h-.644l-.993-1.14c-.429-.497-.845-.886-1.247-1.154a3.552 3.552 0 0 0-1.382-.51v5.099l.563.201c.604.228 1.087.416 1.476.59.389.175.738.376 1.073.618 1.02.751 1.53 1.905 1.53 3.448 0 .872-.188 1.677-.577 2.402Zm-7.393-9.03c.188.308.456.563.805.764.335.202.778.416 1.328.618v-4.764c-.751.067-1.341.295-1.771.698-.443.403-.657.926-.657 1.583 0 .443.094.805.295 1.101Zm5.058 9.727c.43-.456.644-1.046.644-1.757 0-.698-.187-1.262-.576-1.678-.39-.416-1.007-.764-1.852-1.06v5.327c.765-.094 1.355-.375 1.784-.832Zm16.51-.697a4.758 4.758 0 0 1-1.651 1.771c-.711.456-1.543.738-2.469.832v3.019h-1.194v-2.993a31.435 31.435 0 0 1-1.704-.12c-.859-.067-1.489-.108-1.892-.108h-.496l-.899-4.092h.63l1.047 1.248c.51.617 1.02 1.087 1.516 1.395.497.322 1.1.524 1.798.591v-5.77a22.34 22.34 0 0 1-1.61-.563 6.137 6.137 0 0 1-1.315-.685 4.05 4.05 0 0 1-1.275-1.382c-.322-.55-.483-1.248-.483-2.093 0-.818.202-1.57.591-2.227.389-.658.939-1.181 1.65-1.597.711-.402 1.543-.631 2.496-.698v-2.978h1.194v2.978c.389.014.845.054 1.395.108.792.067 1.329.107 1.611.107h.389l.872 3.703h-.644l-.993-1.14c-.43-.497-.845-.886-1.248-1.154a3.552 3.552 0 0 0-1.382-.51v5.099l.563.201c.604.228 1.087.416 1.476.59.39.175.738.376 1.074.618 1.02.751 1.529 1.905 1.529 3.448 0 .872-.187 1.677-.576 2.402Zm-7.394-9.03c.188.308.457.563.805.764.336.202.779.416 1.329.618v-4.764c-.752.067-1.342.295-1.771.698-.443.403-.658.926-.658 1.583 0 .443.094.805.295 1.101Zm5.059 9.727c.429-.456.644-1.046.644-1.757 0-.698-.188-1.262-.577-1.678-.389-.416-1.006-.764-1.852-1.06v5.327c.765-.094 1.355-.375 1.785-.832Z" fill="#F6F2E7"/></g><defs><clipPath id="a"><path fill="#fff" d="M0 0h350v262H0z"/></clipPath></defs></svg>