<svg viewBox="0 0 350 262" fill="none" xmlns="http://www.w3.org/2000/svg"><g clip-path="url(#a)"><path fill="#CFCAC2" d="M0 0h350v262H0z"/><path d="M250 31v73" stroke="#FB5607" stroke-width="2"/><path d="M268 54v50" stroke="#FB5607" stroke-width="2"/><path d="M232 54v50" stroke="#FB5607" stroke-width="2"/><path d="M286 31v73" stroke="#FB5607" stroke-width="2"/><path d="M214 31v73" stroke="#FB5607" stroke-width="2"/><path d="M202 44h24l-12-24-12 24Z" fill="#FB5607"/><path d="M220 73.11h24l-12-24-12 24Z" fill="#FB5607"/><path d="M256 73.11h24l-12-24-12 24Z" fill="#FB5607"/><path d="M238 44.11h24l-12-24-12 24Z" fill="#FB5607"/><path d="M274 44.11h24l-12-24-12 24Z" fill="#FB5607"/><path fill="#BBB6AF" d="M0 131h350v131H0z"/><path d="M231 178.004h20.022a38.573 38.573 0 0 0 27.276-11.298l24.408-24.408A38.575 38.575 0 0 1 329.982 131h20.022" stroke="#CFCAC2" stroke-width="18"/><path d="M112 178.004h20.022a38.573 38.573 0 0 0 27.276-11.298l24.408-24.408A38.575 38.575 0 0 1 210.982 131h20.022" stroke="#CFCAC2" stroke-width="18"/><path d="M-7 178.004h20.022a38.574 38.574 0 0 0 27.276-11.298l24.408-24.408A38.574 38.574 0 0 1 91.982 131h20.022" stroke="#CFCAC2" stroke-width="18"/><path d="M231 225.004h20.022a38.573 38.573 0 0 0 27.276-11.298l24.408-24.408A38.575 38.575 0 0 1 329.982 178h20.022" stroke="#CFCAC2" stroke-width="18"/><path d="M112 225.004h20.022a38.573 38.573 0 0 0 27.276-11.298l24.408-24.408A38.575 38.575 0 0 1 210.982 178h20.022" stroke="#CFCAC2" stroke-width="18"/><path d="M-7 225.004h20.022a38.574 38.574 0 0 0 27.276-11.298l24.408-24.408A38.574 38.574 0 0 1 91.982 178h20.022" stroke="#CFCAC2" stroke-width="18"/><path d="M231 272.004h20.022a38.573 38.573 0 0 0 27.276-11.298l24.408-24.408A38.575 38.575 0 0 1 329.982 225h20.022" stroke="#CFCAC2" stroke-width="18"/><path d="M112 272.004h20.022a38.573 38.573 0 0 0 27.276-11.298l24.408-24.408A38.575 38.575 0 0 1 210.982 225h20.022" stroke="#CFCAC2" stroke-width="18"/><path d="M-7 272.004h20.022a38.574 38.574 0 0 0 27.276-11.298l24.408-24.408A38.574 38.574 0 0 1 91.982 225h20.022" stroke="#CFCAC2" stroke-width="18"/><path d="M350 131H0" stroke="#CFCAC2" stroke-width="18"/><path d="M350 113H0" stroke="#FB5607" stroke-width="18"/></g><defs><clipPath id="a"><path fill="#fff" d="M0 0h350v262H0z"/></clipPath></defs></svg>