<svg viewBox="0 0 556 418" fill="none" xmlns="http://www.w3.org/2000/svg"><g clip-path="url(#a)"><mask id="b" style="mask-type:luminance" maskUnits="userSpaceOnUse" x="0" y="0" width="556" height="418"><path d="M556 0H0v418h556V0Z" fill="#fff"/></mask><g mask="url(#b)"><path d="M556 0H0v418h556V0Z" fill="#473F3B"/><path d="m-32 333 62-62m0 0 62 62m-62-62-62-62 62-62m0 124 62-62-62-62m-62-62 62 62m0 0 62-62" stroke="#211715" stroke-width="2" stroke-dasharray="2 4"/><path d="m464 333 62-62m0 0 62 62m-62-62-62-62 62-62m0 124 62-62-62-62m-62-62 62 62m0 0 62-62" stroke="#211715" stroke-width="2" stroke-dasharray="2 4"/><path d="m464 85-62 62m62-62v124m0-124H340m62 62-62-62m62 62 62 62m-62-62-62 62m124 0v124m0-124H340m124 0-62 62M340 85l-62 62m62-62H216m124 0v124M92 85l62 62M92 85h124M92 85v124m62-62 62-62m-62 62 62 62m-62-62-62 62M216 85l62 62m-62-62v124m-124 0v124m0-124h124m-124 0 62 62m-62 62 62-62m-62 62h124m-62-62 62 62m-62-62 62-62m0 124 62-62m-62 62h124m-124 0V209m248 124-62-62m62 62H340m62-62-62 62m62-62-62-62m0 124-62-62m62 62V209m-62-62-62 62m62-62 62 62m0 0H216m124 0-62 62m-62-62 62 62" stroke="#E3DED4" stroke-width="2" stroke-dasharray="2 4"/><path d="m464-39-62 62m0 0 62 62m-62-62-62 62-62-62m124 0-62-62-62 62M92-39l62 62m0 0L92 85m62-62 62-62 62 62m-124 0 62 62 62-62" stroke="#211715" stroke-width="2" stroke-dasharray="2 4"/><path d="m464 333-62 62m0 0 62 62m-62-62-62 62-62-62m124 0-62-62-62 62M92 333l62 62m0 0-62 62m62-62 62-62 62 62m-124 0 62 62 62-62" stroke="#211715" stroke-width="2" stroke-dasharray="2 4"/><path d="M374.002 85c0-18.777-15.223-34-34.001-34S306 66.223 306 85c0 18.779 15.223 34.002 34.001 34.002s34.001-15.223 34.001-34.001Z" fill="#F6F2E7"/><path d="M361.01 85c0-11.602-9.406-21.008-21.009-21.008S318.992 73.398 318.992 85c0 11.602 9.406 21.008 21.009 21.008S361.01 96.602 361.01 85Z" fill="#FE970C"/><path d="M374.002 209.001c0-18.778-15.223-34.001-34.001-34.001S306 190.223 306 209.001s15.223 34.001 34.001 34.001 34.001-15.223 34.001-34.001Z" fill="#F6F2E7"/><path d="M361.01 209.001c0-11.603-9.406-21.009-21.009-21.009s-21.009 9.406-21.009 21.009 9.406 21.009 21.009 21.009 21.009-9.406 21.009-21.009Z" fill="#FE970C"/><path d="M374.002 333.001c0-18.778-15.223-34.001-34.001-34.001S306 314.223 306 333.001s15.223 34.001 34.001 34.001 34.001-15.223 34.001-34.001Z" fill="#F6F2E7"/><path d="M361.01 333.001c0-11.603-9.406-21.009-21.009-21.009s-21.009 9.406-21.009 21.009 9.406 21.009 21.009 21.009 21.009-9.406 21.009-21.009Z" fill="#FE970C"/><path d="M464.001 243.002c18.778 0 34.001-15.223 34.001-34.001S482.779 175 464.001 175 430 190.223 430 209.001s15.223 34.001 34.001 34.001Z" fill="#F6F2E7"/><path d="M464.001 230.01c11.603 0 21.009-9.406 21.009-21.009s-9.406-21.009-21.009-21.009-21.009 9.406-21.009 21.009 9.406 21.009 21.009 21.009Z" fill="#FE970C"/><path d="M464.001 367.002c18.778 0 34.001-15.223 34.001-34.001S482.779 299 464.001 299 430 314.223 430 333.001s15.223 34.001 34.001 34.001Z" fill="#F6F2E7"/><path d="M464.001 354.01c11.603 0 21.009-9.406 21.009-21.009s-9.406-21.009-21.009-21.009-21.009 9.406-21.009 21.009 9.406 21.009 21.009 21.009Z" fill="#FE970C"/><path d="M250.002 85c0-18.777-15.223-34-34.001-34S182 66.223 182 85c0 18.779 15.223 34.002 34.001 34.002s34.001-15.223 34.001-34.001Z" fill="#F6F2E7"/><path d="M237.01 85c0-11.602-9.406-21.008-21.009-21.008S194.992 73.398 194.992 85c0 11.602 9.406 21.008 21.009 21.008S237.01 96.602 237.01 85Z" fill="#FE970C"/><path d="M250.002 209.001c0-18.778-15.223-34.001-34.001-34.001S182 190.223 182 209.001s15.223 34.001 34.001 34.001 34.001-15.223 34.001-34.001Z" fill="#F6F2E7"/><path d="M237.01 209.001c0-11.603-9.406-21.009-21.009-21.009s-21.009 9.406-21.009 21.009 9.406 21.009 21.009 21.009 21.009-9.406 21.009-21.009Z" fill="#FE970C"/><path d="M250.002 333.001c0-18.778-15.223-34.001-34.001-34.001S182 314.223 182 333.001s15.223 34.001 34.001 34.001 34.001-15.223 34.001-34.001Z" fill="#F6F2E7"/><path d="M237.01 333.001c0-11.603-9.406-21.009-21.009-21.009s-21.009 9.406-21.009 21.009 9.406 21.009 21.009 21.009 21.009-9.406 21.009-21.009Z" fill="#FE970C"/><path d="M464.001 119.002c18.778 0 34.001-15.223 34.001-34.001S482.779 51 464.001 51 430 66.223 430 85.001s15.223 34.001 34.001 34.001Z" fill="#F6F2E7"/><path d="M464.001 106.01c11.603 0 21.009-9.406 21.009-21.01 0-11.602-9.406-21.008-21.009-21.008s-21.009 9.406-21.009 21.009 9.406 21.009 21.009 21.009Z" fill="#FE970C"/><path d="M126.002 85.001C126.002 66.223 110.779 51 92.001 51S58 66.223 58 85.001s15.223 34.001 34.001 34.001 34.001-15.223 34.001-34.001Z" fill="#F6F2E7"/><path d="M113.01 85c0-11.602-9.406-21.008-21.01-21.008-11.602 0-21.008 9.406-21.008 21.009 0 11.602 9.406 21.008 21.009 21.008s21.009-9.406 21.009-21.008Z" fill="#FE970C"/><path d="M126.002 209.001c0-18.778-15.223-34.001-34.001-34.001S58 190.223 58 209.001s15.223 34.001 34.001 34.001 34.001-15.223 34.001-34.001Z" fill="#F6F2E7"/><path d="M113.01 209.001c0-11.603-9.406-21.009-21.01-21.009-11.602 0-21.008 9.406-21.008 21.009s9.406 21.009 21.009 21.009 21.009-9.406 21.009-21.009Z" fill="#FE970C"/><path d="M126.002 333.001c0-18.778-15.223-34.001-34.001-34.001S58 314.223 58 333.001s15.223 34.001 34.001 34.001 34.001-15.223 34.001-34.001Z" fill="#F6F2E7"/><path d="M113.01 333.001c0-11.603-9.406-21.009-21.01-21.009-11.602 0-21.008 9.406-21.008 21.009s9.406 21.009 21.009 21.009 21.009-9.406 21.009-21.009Z" fill="#FE970C"/></g></g><defs><clipPath id="a"><path fill="#fff" d="M0 0h556v418H0z"/></clipPath></defs></svg>