<svg fill="none" height="42" viewBox="0 0 299 42" width="299" xmlns="http://www.w3.org/2000/svg"><g fill="#cae9ff"><path clip-rule="evenodd" d="m44.9677 3.88081c-.4137-2.913337-9.7087-1.20398-12.1937-.74698-.198.03642-.3528.06489-.4564.08242-.0721.01215-.1392-.0484-.1246-.11884.1428-.7048.2461-2.610509-1.1241-3.0231113-.8759-.2640047-1.4537.2230953-1.7965.7144613-.1533.22047-.6127 1.17347-.8981 1.835-.1539.35729-.5121.87934-.9058.8699-1.6512-.50639-3.3098-.75965-4.9684-.75965-1.6583 0-3.3171.25326-4.9685.75965-.3935.00944-.7519-.51261-.9058-.8699-.2854-.66153-.7446-1.61453-.8981-1.835-.3428-.49135-.9202-.978466-1.7963-.7144613-1.3704.4126023-1.2672 2.3183113-1.1241 3.0231113.0144.07044-.0527.13097-.1248.11884-.1034-.01751-.2579-.04593-.4555-.08228-2.48361-.4568-11.780696-2.1668-12.1948003.74684-.4238737 2.98363 3.4062303 7.09829 7.4139303 8.94749.21151.0976.39938.2321.58752.3667.15583.1116.3119.2233.48168.3142.63082.3382 1.00705 1.1823.91469 1.9436v10.6601c3.16018-2.19 7.80528-3.5528 13.07008-3.5528 5.2649 0 9.9102 1.3628 13.0704 3.5528v-10.6601c-.0926-.7613.2835-1.6054.9142-1.9436.1702-.0911.3265-.2029.4825-.3145.1879-.1345.3755-.2689.5868-.3664 4.0077-1.8492 7.8382-5.96384 7.4137-8.94749zm-26.2105 9.17209c1.3749.9289 1.8151 1.6132 1.7695 1.8831-.0509.2687-.702.7632-2.3165 1.1731-1.1304.2801-2.3066.3845-3.4701.3138-.2734-.0169-.5476-.0618-.8013-.1638-.4629-.1854-.8543-.5046-1.1453-.9251-.393-.5491-.5802-1.1608-.4604-1.8217.117-.6618.505-1.1732 1.065-1.5564.4195-.2974.8981-.4654 1.3975-.4837.2736-.0098.547.0399.8095.1165 1.1181.3253 2.1872.82 3.1521 1.4642zm13.4495 2.2811c-.2908.4205-.6823.7397-1.1451.9251-.2538.102-.528.1469-.8014.1638-1.1635.0707-2.3399-.0337-3.4701-.3138-1.6147-.4099-2.2658-.9047-2.3167-1.1733-.0453-.2699.3948-.954 1.7696-1.8829.965-.6442 2.0341-1.1389 3.1522-1.4643.2625-.0765.5359-.1262.8095-.1165.4994.0183.9781.1864 1.3975.4838.56.3832.9482.8949 1.0649 1.5567.1199.6609-.0673 1.2722-.4604 1.8214z" fill-rule="evenodd"/><path clip-rule="evenodd" d="m22.5002 24.3336c-8.5998 0-15.57094 3.9547-15.57094 8.8332 0 4.8786 6.97114 8.8332 15.57094 8.8332 8.5997 0 15.5711-3.9547 15.5711-8.8332s-6.9716-8.8332-15.5711-8.8332zm-7.3699 9.736c-1.3325.6405-2.5732 0-2.8112-1.4526-.2607-1.5562 1.8681-5.2547 2.3578-2.458.2801 1.6 1.1134 1.0045 1.7778.5298.4968-.3551.8991-.6426.9049.1063-.0731 1.413-.9296 2.6718-2.2293 3.2745zm17.5506-1.4526c-.2383 1.4526-1.479 2.0931-2.8111 1.4526-1.2998-.6027-2.1566-1.8615-2.2291-3.2745.0056-.7488.4078-.4614.9045-.1064.6642.4747 1.4976 1.0704 1.778-.5297.4897-2.7967 2.6181.9018 2.3577 2.458z" fill-rule="evenodd"/><path d="m66.2436 15.725c-2.3299 0-3.9743.4234-4.9343 1.2691-.9603.8467-1.4403 2.1417-1.4403 3.8868v.3173c0 1.6924.486 2.9614 1.4593 3.8072.9726.8463 2.6114 1.269 4.9153 1.269h20.2376c2.3329 0 4.2241 1.9532 4.2241 4.3626 0 2.4093-1.8912 4.3625-4.2241 4.3625h-19.8921c-5.6581 0-9.8372-1.1564-12.5377-3.4703-2.7015-2.3132-4.0514-5.7435-4.0514-10.2914v-.3173c0-9.2803 5.5297-13.92048 16.5891-13.9205h19.8921c2.333 0 4.2242 1.9532 4.2242 4.3625 0 2.4094-1.8913 4.3625-4.2242 4.3625z"/><path d="m123.157 15.7256 4.811-8.6071c9.222.73607 13.848 5.3284 13.848 13.8025v.3173c0 4.5478-1.351 7.9782-4.051 10.2914-2.701 2.3139-6.881 3.4703-12.538 3.4703h-12.846l4.878-8.725h8.313c2.305 0 3.942-.4227 4.916-1.2691.972-.8457 1.459-2.1148 1.459-3.8072v-.3173c0-1.7451-.48-3.0401-1.44-3.8867-.96-.8458-2.605-1.2691-4.935-1.2691z"/><path d="m119.369 15.725 4.877-8.72499h-12.419c-11.059 0-16.589 4.64019-16.589 13.92049v.3173c0 4.5479 1.35 7.9782 4.0514 10.2914 2.1696 1.8586 5.3096 2.9571 9.3866 3.3227l4.795-8.5775h-1.989c-2.304 0-3.943-.4227-4.916-1.269-.973-.8458-1.459-2.1148-1.459-3.8072v-.3173c0-1.7451.48-3.0401 1.44-3.8868.96-.8457 2.605-1.2691 4.935-1.2691z"/><path d="m197.125 9.20959c.901-1.38134 2.408-2.20958 4.02-2.20958 3.898 0 6.201 4.51089 3.999 7.83249l-11.926 17.9894c-1.837 2.7712-5.743 2.9243-7.778.305l-5.962-7.6735c-1.94-2.4968-5.62-2.4968-7.56 0l-5.962 7.6735c-2.036 2.6194-5.942 2.4662-7.779-.305l-11.926-17.9894c-2.202-3.3216.101-7.83249 3.999-7.83249 1.612 0 3.119.82824 4.02 2.20958l4.775 7.32381c1.821 2.7924 5.738 2.9696 7.788.3522l5.097-6.5074c1.939-2.47656 5.596-2.47656 7.536 0l5.096 6.5074c2.05 2.6174 5.968 2.4402 7.788-.3522z"/><path clip-rule="evenodd" d="m295.797 16.4922 2.918-.0176v16.207c0 5.045-2.514 8.6485-8.613 8.6485-2.62 0-5.045-.6328-7.137-1.8985l.703-2.6894c2.039 1.1601 3.797 1.8457 6.293 1.8457 3.955 0 5.906-2.3027 5.906-5.1328v-2.4434h-.088c-1.406 1.6699-3.427 2.6719-5.959 2.6719-4.658 0-8.472-3.4629-8.472-8.6836 0-4.957 3.568-8.7188 8.332-8.7188 2.338 0 4.535.9141 6.047 2.6368h.07zm-5.731 14.4492c3.534 0 5.854-2.584 5.854-6.082 0-3.5332-2.549-5.8887-5.854-5.8887-3.357 0-5.73 2.5488-5.73 5.9238 0 3.7266 2.584 6.0469 5.73 6.0469z" fill-rule="evenodd"/><path clip-rule="evenodd" d="m277.111 16.4746-2.918.0176v2.584h-.07c-1.459-1.8282-3.621-2.795-6.012-2.795-4.957 0-8.578 3.9024-8.578 9.0704 0 5.3789 3.762 8.8769 8.596 8.8769 2.584 0 4.728-1.125 6.152-3.0058h.035v2.7773h2.795zm-2.812 8.8945c0 3.709-2.742 6.1875-5.889 6.1875-3.568 0-5.906-2.6543-5.906-6.1875 0-3.9023 2.601-6.4336 5.941-6.4336 3.358 0 5.854 2.8301 5.854 6.4336z" fill-rule="evenodd"/><path d="m254.945 16.4922h2.971l-6.082 17.5078h-2.76l-3.937-12.7617h-.071l-3.955 12.7617h-2.689l-6.082-17.5078h2.971l4.464 13.0781h.071l3.99-13.0781h2.531l4.043 13.0957h.07z"/><path d="m212.582 30.2736c2.549 2.7247 5.854 3.9551 9.053 3.9551 4.412 0 8.543-2.4961 8.543-7.207 0-4.5829-3.327-5.8712-7.38-7.4408-.176-.0679-.352-.1364-.53-.2057l-.068-.0259c-3.164-1.2168-5.417-2.0832-5.399-4.5268.017-2.3906 2.162-3.709 4.535-3.709 1.934 0 4.184.8262 6.223 2.4961l1.88-2.4258c-2.425-1.93359-5.255-3.00585-8.085-2.98827-4.377.01757-7.805 2.93557-7.805 6.76757 0 4.4121 3.849 6.0469 7.629 7.4531.111.042.222.0834.331.1243 3.228 1.2118 5.399 2.0266 5.399 4.8152 0 2.4433-2.109 3.9023-5.238 3.9023-2.496 0-5.238-1.1074-7.102-3.3926z"/></g></svg>