<svg fill="none" height="490" viewBox="0 0 600 490" width="600" xmlns="http://www.w3.org/2000/svg" xmlns:xlink="http://www.w3.org/1999/xlink"><radialGradient id="a" cx="0" cy="0" gradientTransform="matrix(-599.99944743 -562.00012499 562.00012499 -599.99944743 600 562)" gradientUnits="userSpaceOnUse" r="1"><stop offset="0" stop-color="#fed4c9"/><stop offset=".125805" stop-color="#f8dbf4"/><stop offset=".411362" stop-color="#d8dbff"/><stop offset=".628973" stop-color="#c4ddff"/><stop offset="1" stop-color="#cae9ff"/></radialGradient><clipPath id="b"><path d="m0 0h600v490h-600z" transform="matrix(-1 0 0 -1 600 490)"/></clipPath><g clip-path="url(#b)"><path d="m0 0h600v490h-600z" fill="url(#a)" transform="matrix(-1 0 0 -1 600 490)"/><g fill="#fff"><circle cx="176" cy="179" r="97"/><circle cx="483.5" cy="247.5" r="28.5"/><circle cx="379" cy="166" r="17"/><circle cx="373" cy="231" r="45"/><circle cx="455.5" cy="163.5" r="55.5"/></g><rect height="60" rx="30" stroke="#fff" stroke-width="4" width="490" x="55" y="276"/><path d="m299.354 336.387c.795-1.152 2.497-1.152 3.292 0l38.354 55.613h-80z" fill="#fff"/><path d="m0 392h600v112h-540c-33.1371 0-60-26.863-60-60z" fill="#fff"/></g></svg>