<svg fill="none" height="490" viewBox="0 0 600 490" width="600" xmlns="http://www.w3.org/2000/svg" xmlns:xlink="http://www.w3.org/1999/xlink"><radialGradient id="a" cx="0" cy="0" gradientTransform="matrix(-599.99944743 -562.00012499 562.00012499 -599.99944743 600 562)" gradientUnits="userSpaceOnUse" r="1"><stop offset="0" stop-color="#fed4c9"/><stop offset=".125805" stop-color="#f8dbf4"/><stop offset=".411362" stop-color="#d8dbff"/><stop offset=".628973" stop-color="#c4ddff"/><stop offset="1" stop-color="#cae9ff"/></radialGradient><path d="m0 0h600v490h-600z" fill="url(#a)" transform="matrix(-1 0 0 -1 600 490)"/><g fill="#fff"><circle cx="300" cy="246" r="171"/><path d="m257.367 43.0004c.95-4.6561 5.046-8.0004 9.798-8.0004h65.67c4.752 0 8.848 3.3443 9.798 8.0004l8.367 40.9996h-102z"/><path d="m127.019 132.311c-2.62-3.964-2.089-9.225 1.271-12.585l46.435-46.4358c3.361-3.3602 8.622-3.8915 12.586-1.2711l34.907 23.0746-72.124 72.1253z"/><path d="m98.0004 287.633c-4.6561-.95-8.0004-5.046-8.0004-9.798v-65.67c0-4.752 3.3443-8.848 8.0004-9.798l40.9996-8.367v102z"/><path d="m187.311 417.981c-3.964 2.62-9.225 2.089-12.585-1.271l-46.436-46.435c-3.36-3.361-3.891-8.622-1.271-12.586l23.075-34.907 72.125 72.124z"/><path d="m257.367 447c.95 4.656 5.046 8 9.798 8h65.67c4.752 0 8.848-3.344 9.798-8l8.367-41h-102z"/><path d="m412.689 417.981c3.964 2.62 9.225 2.089 12.585-1.271l46.436-46.435c3.36-3.361 3.891-8.622 1.271-12.586l-23.075-34.907-72.125 72.124z"/><path d="m502 287.633c4.656-.95 8-5.046 8-9.798v-65.67c0-4.752-3.344-8.848-8-9.798l-41-8.367v102z"/><path d="m472.981 132.311c2.62-3.964 2.089-9.225-1.271-12.585l-46.435-46.4358c-3.361-3.3602-8.622-3.8915-12.586-1.2711l-34.907 23.0746 72.124 72.1253z"/></g><path d="m343 202-86 86" stroke="#c9ddff" stroke-linecap="round" stroke-width="3"/><circle cx="269.5" cy="214.5" r="19.5" stroke="#c9ddff" stroke-linecap="round" stroke-width="3"/><circle cx="330.5" cy="275.5" r="19.5" stroke="#c9ddff" stroke-linecap="round" stroke-width="3"/><path d="m298.656 131.22c.762-.692 1.926-.692 2.688 0l18.284 16.595c.533.484 1.286.644 1.97.419l23.452-7.724c.979-.322 2.041.151 2.456 1.094l9.953 22.597c.291.659.913 1.111 1.63 1.184l24.567 2.482c1.024.104 1.803.969 1.798 1.998l-.098 24.692c-.003.72.382 1.387 1.007 1.744l21.433 12.261c.894.511 1.253 1.617.831 2.556l-10.134 22.517c-.295.657-.215 1.422.211 2.003l14.593 19.918c.609.831.487 1.988-.281 2.674l-18.415 16.449c-.538.48-.775 1.211-.623 1.915l5.23 24.132c.219 1.006-.363 2.014-1.344 2.328l-23.514 7.536c-.685.22-1.2.792-1.347 1.497l-5.037 24.173c-.21 1.008-1.152 1.692-2.175 1.58l-24.547-2.679c-.716-.078-1.418.235-1.839.819l-14.434 20.034c-.602.836-1.74 1.077-2.63.559l-21.334-12.431c-.622-.363-1.392-.363-2.014 0l-21.334 12.431c-.89.518-2.028.277-2.63-.559l-14.434-20.034c-.421-.584-1.123-.897-1.839-.819l-24.547 2.679c-1.023.112-1.965-.572-2.175-1.58l-5.037-24.173c-.147-.705-.662-1.277-1.347-1.497l-23.514-7.536c-.981-.314-1.563-1.322-1.344-2.328l5.23-24.132c.152-.704-.085-1.435-.623-1.915l-18.415-16.449c-.768-.686-.89-1.843-.281-2.674l14.593-19.918c.426-.581.506-1.346.211-2.003l-10.134-22.517c-.422-.939-.063-2.045.831-2.556l21.433-12.261c.625-.357 1.01-1.024 1.007-1.744l-.098-24.692c-.005-1.029.774-1.894 1.798-1.998l24.567-2.482c.717-.073 1.339-.525 1.63-1.184l9.953-22.597c.415-.943 1.477-1.416 2.456-1.094l23.452 7.724c.684.225 1.437.065 1.97-.419z" stroke="#c5deff" stroke-width="3"/></svg>