<svg fill="none" height="490" viewBox="0 0 600 490" width="600" xmlns="http://www.w3.org/2000/svg" xmlns:xlink="http://www.w3.org/1999/xlink"><radialGradient id="a" cx="0" cy="0" gradientTransform="matrix(-599.99944743 -562.00012499 562.00012499 -599.99944743 600 562)" gradientUnits="userSpaceOnUse" r="1"><stop offset="0" stop-color="#fed4c9"/><stop offset=".125805" stop-color="#f8dbf4"/><stop offset=".411362" stop-color="#d8dbff"/><stop offset=".628973" stop-color="#c4ddff"/><stop offset="1" stop-color="#cae9ff"/></radialGradient><clipPath id="b"><path d="m0 0h600v490h-600z" transform="matrix(-1 0 0 -1 600 490)"/></clipPath><g clip-path="url(#b)"><path d="m0 0h600v490h-600z" fill="url(#a)" transform="matrix(-1 0 0 -1 600 490)"/><g stroke="#fff" stroke-linecap="round" stroke-width="3"><circle cx="300" cy="192" r="80"/><circle cx="116" cy="192" r="80"/><circle cx="484" cy="192" r="80"/><circle cx="300" cy="404" r="80"/><circle cx="116" cy="404" r="80"/><circle cx="484" cy="404" r="80"/><circle cx="300" cy="458" r="80"/><circle cx="116" cy="458" r="80"/><circle cx="484" cy="458" r="80"/><circle cx="300" cy="139" r="80"/><circle cx="116" cy="139" r="80"/><circle cx="484" cy="139" r="80"/><circle cx="300" cy="351" r="80"/><circle cx="116" cy="351" r="80"/><circle cx="484" cy="351" r="80"/><circle cx="300" cy="86" r="80"/><circle cx="116" cy="86" r="80"/><circle cx="484" cy="86" r="80"/><circle cx="300" cy="32" r="80"/><circle cx="116" cy="32" r="80"/><circle cx="484" cy="32" r="80"/><circle cx="300" cy="298" r="80"/><circle cx="116" cy="298" r="80"/><circle cx="484" cy="298" r="80"/></g><circle cx="300" cy="245" fill="#fff" r="80"/><circle cx="116" cy="245" fill="#fff" r="80"/><circle cx="484" cy="245" fill="#fff" r="80"/></g></svg>