<svg fill="none" height="490" viewBox="0 0 600 490" width="600" xmlns="http://www.w3.org/2000/svg" xmlns:xlink="http://www.w3.org/1999/xlink"><radialGradient id="a" cx="0" cy="0" gradientTransform="matrix(-599.99944743 -562.00012499 562.00012499 -599.99944743 600 562)" gradientUnits="userSpaceOnUse" r="1"><stop offset="0" stop-color="#fed4c9"/><stop offset=".125805" stop-color="#f8dbf4"/><stop offset=".411362" stop-color="#d8dbff"/><stop offset=".628973" stop-color="#c4ddff"/><stop offset="1" stop-color="#cae9ff"/></radialGradient><linearGradient id="b"><stop offset="0" stop-color="#fff"/><stop offset="1" stop-color="#fff" stop-opacity="0"/></linearGradient><linearGradient id="c" gradientUnits="userSpaceOnUse" x1="300" x2="158" xlink:href="#b" y1="50" y2="50"/><linearGradient id="d" gradientUnits="userSpaceOnUse" x1="234" x2="0" xlink:href="#b" y1=".000007" y2="-.000011"/><linearGradient id="e" gradientUnits="userSpaceOnUse" x1="450" x2="216" xlink:href="#b" y1="330" y2="330"/><path d="m0 0h600v490h-600z" fill="url(#a)" transform="matrix(-1 0 0 -1 600 490)"/><g stroke="#fff"><path d="m50 245c0-30.376 24.6243-55 55-55h390c30.376 0 55 24.624 55 55 0 30.376-24.624 55-55 55h-390c-30.3757 0-55-24.624-55-55z" stroke-linecap="round" stroke-width="3"/><path d="m50 105c0-30.3757 24.6243-55 55-55h390c30.376 0 55 24.6243 55 55 0 30.376-24.624 55-55 55h-390c-30.3757 0-55-24.624-55-55z" stroke-linecap="round" stroke-width="3"/><path d="m50 385c0-30.376 24.6243-55 55-55h390c30.376 0 55 24.624 55 55 0 30.376-24.624 55-55 55h-390c-30.3757 0-55-24.624-55-55z" stroke-linecap="round" stroke-width="3"/></g><path d="m158 50h142v110h-142z" fill="url(#c)" opacity=".75"/><path d="m0 0h234v110h-234z" fill="url(#d)" opacity=".75" transform="matrix(-1 0 0 1 424 190)"/><path d="m216 330h234v110h-234z" fill="url(#e)" opacity=".75"/><circle cx="300" cy="105" fill="#fff" r="55"/><circle cx="55" cy="55" fill="#fff" r="55" transform="matrix(-1 0 0 1 245 190)"/><circle cx="450" cy="385" fill="#fff" r="55"/><circle cx="300" cy="105" r="39" stroke="#d1dcff" stroke-width="3"/><circle cx="39" cy="39" r="39" stroke="#d1dcff" stroke-width="3" transform="matrix(-1 0 0 1 229 206)"/><circle cx="450" cy="385" r="39" stroke="#d1dcff" stroke-width="3"/></svg>