<svg viewBox="0 0 600 490" fill="none" xmlns="http://www.w3.org/2000/svg"><g clip-path="url(#a)"><path transform="matrix(-1 0 0 -1 600 490)" fill="url(#b)" d="M0 0H600V490H0z"/><circle cx="300" cy="245" r="130" fill="#fff"/><circle cx="300" cy="245" r="100" stroke="#C9DDFF" stroke-width="3" stroke-linecap="round"/><path d="M300 295L300 195" stroke="#C9DDFF" stroke-width="3" stroke-linecap="round"/><path d="M250 245L350 245" stroke="#C9DDFF" stroke-width="3" stroke-linecap="round"/><circle cx="447" cy="84" r="74" fill="#fff"/><circle cx="317" cy="57" r="46" fill="#fff"/><circle cx="139" cy="146" r="43" fill="#fff"/><circle cx="148.5" cy="212.5" r="15.5" fill="#fff"/><circle cx="94.5" cy="196.5" r="10.5" fill="#fff"/><circle cx="203.5" cy="128.5" r="8.5" fill="#fff"/><circle cx="591" cy="91" r="60" fill="#fff"/><circle cx="542" cy="-58" r="87" fill="#fff"/><circle cx="376" cy="2" r="25" fill="#fff"/><circle cx="234" cy="88" r="27" fill="#fff"/><circle cx="253" cy="44" r="11" fill="#fff"/><circle cx="184" cy="471" r="109" fill="#fff"/><circle cx="370" cy="443" r="65" fill="#fff"/><circle cx="87.5" cy="293.5" r="75.5" fill="#fff"/><circle cx="-37" cy="439" r="103" fill="#fff"/><circle cx="294" cy="397" r="11" fill="#fff"/><circle cx="175.5" cy="339.5" r="13.5" fill="#fff"/><circle cx="455.5" cy="352.5" r="45.5" fill="#fff"/><circle cx="523.5" cy="359.5" r="9.5" fill="#fff"/><circle cx="463" cy="273" r="23" fill="#fff"/><circle cx="473" cy="201" r="34" fill="#fff"/><circle cx="593.5" cy="518.5" r="151.5" fill="#fff"/><circle cx="579.5" cy="273.5" r="82.5" fill="#fff"/><circle cx="561" cy="170" r="12" fill="#fff"/><circle cx="521.5" cy="157.5" r="19.5" fill="#fff"/><circle cx="119" cy="-43" r="134" fill="#fff"/><circle cx="7" cy="148" r="74" fill="#fff"/></g><defs><radialGradient id="b" cx="0" cy="0" r="1" gradientUnits="userSpaceOnUse" gradientTransform="translate(600 562) rotate(-136.873) scale(822.097 822.097)"><stop stop-color="#FED4C9"/><stop offset="0.125805" stop-color="#F8DBF4"/><stop offset="0.411362" stop-color="#D8DBFF"/><stop offset="0.628973" stop-color="#C4DDFF"/><stop offset="1" stop-color="#CAE9FF"/></radialGradient><clipPath id="a"><path fill="#fff" transform="matrix(-1 0 0 -1 600 490)" d="M0 0H600V490H0z"/></clipPath></defs></svg>