<svg fill="none" height="76" viewBox="0 0 76 76" width="76" xmlns="http://www.w3.org/2000/svg"><rect fill="#cae9ff" height="76" rx="38" width="76"/><path d="m37.2444 52v-28h1.8223v28zm4.8334-18.7578c-.0889-.8823-.4704-1.5677-1.1445-2.0563-.674-.4885-1.5889-.7328-2.7444-.7328-.7852 0-1.4482.1094-1.9889.3282-.5407.2114-.9556.5067-1.2444.8859-.2815.3792-.4223.8094-.4223 1.2906-.0148.4011.0704.7511.2556 1.05.1926.299.4555.5578.7889.7766.3333.2114.7185.3974 1.1555.5578.4371.1531.9037.2844 1.4.3937l2.0445.4813c.9926.2187 1.9037.5104 2.7333.875s1.5482.813 2.1556 1.3453 1.0777 1.1594 1.4111 1.8813c.3407.7218.5148 1.5494.5222 2.4828-.0074 1.3708-.363 2.5593-1.0667 3.5656-.6963.9989-1.7037 1.7755-3.0222 2.3297-1.3111.5469-2.8926.8203-4.7444.8203-1.8371 0-3.4371-.2771-4.8-.8313-1.3556-.5541-2.4148-1.3744-3.1778-2.4609-.7556-1.0937-1.1519-2.4464-1.1889-4.0578h4.6556c.0518.751.2703 1.3781.6555 1.8812.3926.4959.9148.8714 1.5667 1.1266.6592.2479 1.4037.3719 2.2333.3719.8148 0 1.5222-.1167 2.1222-.35.6074-.2334 1.0778-.5578 1.4111-.9735.3334-.4156.5-.8932.5-1.4328 0-.5031-.1518-.926-.4555-1.2687-.2963-.3427-.7333-.6344-1.3111-.875-.5704-.2407-1.2704-.4594-2.1-.6563l-2.4778-.6125c-1.9185-.4593-3.4333-1.1776-4.5444-2.1547-1.1112-.977-1.663-2.2932-1.6556-3.9484-.0074-1.3562.3593-2.5411 1.1-3.5547.7481-1.0135 1.7741-1.8047 3.0778-2.3734 1.3037-.5688 2.7852-.8531 4.4444-.8531 1.6889 0 3.163.2843 4.4222.8531 1.2667.5687 2.2519 1.3599 2.9556 2.3734.7037 1.0136 1.0667 2.1875 1.0889 3.5219z" fill="#052b65"/><path d="m38 63c-13.7204 0-24.843-10.969-24.843-24.5l.0429-5.3185m24.8001-19.1815c13.7204 0 24.843 10.969 24.843 24.5v5.3609m-49.6431-10.6794-6.19996 6.1144m6.19996-6.1144 6.2 6.1144m49.6-1.5919-6.2 6.1144-6.2-6.1144" stroke="#052b65" stroke-width="2"/></svg>