<svg fill="none" height="76" viewBox="0 0 76 76" width="76" xmlns="http://www.w3.org/2000/svg" xmlns:xlink="http://www.w3.org/1999/xlink"><clipPath id="a"><rect height="76" rx="38" width="76"/></clipPath><g clip-path="url(#a)"><rect fill="#cae9ff" height="76" rx="38" width="76"/><g fill="#fff"><path d="m37 0h2v76h-2z"/><path d="m17 0h2v76h-2z"/><path d="m57 0h2v76h-2z"/></g><path d="m0 53 15.9904-12.437c1.0232-.7958 2.5215-.423 3.0524.7596l8.6659 19.3013c.6006 1.3377 2.3888 1.5957 3.343.4824l6.6737-7.7859c.1811-.2113.3161-.458.3964-.7245l9.4494-31.3548c.519-1.7224 2.8707-1.9373 3.6935-.3376l4.9824 9.6881c.7393 1.4374 2.7899 1.4496 3.5462.0211l16.2067-30.6127" stroke="#052b65" stroke-width="2"/></g></svg>