<svg fill="none" height="76" viewBox="0 0 76 76" width="76" xmlns="http://www.w3.org/2000/svg" xmlns:xlink="http://www.w3.org/1999/xlink"><clipPath id="a"><rect height="76" rx="38" width="76"/></clipPath><g clip-path="url(#a)"><rect fill="#cae9ff" height="76" rx="38" width="76"/><path d="m0 38h76v38h-76z" fill="#8295b2"/><path d="m0 53 17.8207-13.3655c1.0803-.8102 2.6365-.339 3.086.9344l6.3937 18.1154c.6055 1.7158 3.0017 1.7973 3.7224.1266l8.9772-20.8109 7.3367-17.5264c.6571-1.57 2.8501-1.6539 3.6253-.1387l7.0813 13.8406c.7743 1.5135 2.9641 1.432 3.6238-.1348l14.3329-34.0407" stroke="#052b65" stroke-width="2"/><path d="m0 53 17.8207-13.3655c1.0803-.8102 2.6365-.339 3.086.9344l6.3937 18.1154c.6055 1.7158 3.0017 1.7973 3.7224.1266l8.9772-20.8109" stroke="#cae9ff" stroke-width="2"/><circle cx="60" cy="38" fill="#052b65" r="5"/><circle cx="40" cy="38" fill="#052b65" r="5"/><circle cx="40" cy="38" fill="#cae9ff" r="2"/><circle cx="60" cy="38" fill="#cae9ff" r="2"/><circle cx="20" cy="38" fill="#052b65" r="5"/><circle cx="20" cy="38" fill="#cae9ff" r="2"/></g></svg>