<svg viewBox="0 0 84 48" fill="none" xmlns="http://www.w3.org/2000/svg"><path d="M70.656 20.108a76.85 76.85 0 0 0-2.262-.447 28.261 28.261 0 0 0-1.157-5.225C77.417 16.075 84 18.68 84 21.613c0 .033 0 .066-.002.098-.243 4.914-18.953 8.881-41.998 8.881-23.196 0-42-4.02-42-8.977 0-.03 0-.062.002-.092.135-2.93 6.84-5.526 17.118-7.144a28.266 28.266 0 0 0-1.167 5.219c-.908.162-1.778.332-2.61.51a58.185 58.185 0 0 0-2.987.717v.001c-.964.26-1.822.524-2.576.788 1.46.51 3.314 1.024 5.564 1.504.762.163 1.557.32 2.384.47v.001c6.95 1.261 16.123 2.05 26.272 2.05 10.315 0 19.621-.815 26.611-2.112v-.001a77.417 77.417 0 0 0 2.045-.408c2.25-.48 4.106-.994 5.566-1.505-1.46-.51-3.316-1.024-5.566-1.505Z" fill="url(#a)"/><path d="M73.642 6.128a1.48 1.48 0 0 0 .002-.07c0-2.647-7.031-4.94-17.285-6.058a26.967 26.967 0 0 1 6.417 5.976l.395.082-.286.06C57.662 7.193 50.372 7.89 42.193 7.89c-8.2 0-15.506-.7-20.733-1.778l.001-.002a49.624 49.624 0 0 1-.247-.051l.342-.071A26.974 26.974 0 0 1 27.97.006C17.746 1.126 10.74 3.416 10.74 6.058c0 3.307 15.227 5.936 25.49 6.663 2.297.162 5.893.174 5.893.174 1.269.055 3.58-.01 5.868-.168 10.319-.711 25.5-3.31 25.651-6.6Z" fill="url(#b)"/><path d="M10.74 40.373c0-1.73 3.001-3.308 7.941-4.506a27.703 27.703 0 0 0 2.777 4.455l-.245.051.338.07.023.03h.112c5.211 1.052 12.424 1.732 20.506 1.732 8.081 0 15.294-.68 20.505-1.733h.068l.014-.017.392-.082-.284-.059a27.677 27.677 0 0 0 2.775-4.456c4.964 1.199 7.982 2.781 7.982 4.515 0 .033-.001.066-.004.1-.242 3.7-14.23 6.685-31.448 6.685-17.22 0-31.206-2.985-31.45-6.686a1.494 1.494 0 0 1-.002-.099Z" fill="url(#c)"/><defs><linearGradient id="a" x1="0" y1="23.579" x2="46.871" y2="-18.138" gradientUnits="userSpaceOnUse"><stop stop-color="#FFE7E0"/><stop offset=".109" stop-color="#F8DBF4"/><stop offset=".526" stop-color="#C4DDFF"/><stop offset="1" stop-color="#CAE9FF"/></linearGradient><linearGradient id="b" x1="0" y1="23.579" x2="46.871" y2="-18.138" gradientUnits="userSpaceOnUse"><stop stop-color="#FFE7E0"/><stop offset=".109" stop-color="#F8DBF4"/><stop offset=".526" stop-color="#C4DDFF"/><stop offset="1" stop-color="#CAE9FF"/></linearGradient><linearGradient id="c" x1="0" y1="23.579" x2="46.871" y2="-18.138" gradientUnits="userSpaceOnUse"><stop stop-color="#FFE7E0"/><stop offset=".109" stop-color="#F8DBF4"/><stop offset=".526" stop-color="#C4DDFF"/><stop offset="1" stop-color="#CAE9FF"/></linearGradient></defs></svg>