<svg height="24" viewBox="0 -960 960 960" width="24" xmlns="http://www.w3.org/2000/svg"><path d="m520-496 120 120q11 11 11 28t-11 28q-11 11-28 11t-28-11l-132-132q-6-6-9-13.5t-3-15.5v-159q0-17 11.5-28.5t28.5-11.5q17 0 28.5 11.5t11.5 28.5zm-406 179q-13-29-21-60t-11-63h81q3 21 8.5 42t13.5 41zm-32-203q3-32 11-63.5t22-60.5l70 40q-8 20-13.5 41t-8.5 43zm165 366q-27-20-50-43.5t-43-50.5l70-40q14 18 29.5 33.5t33.5 29.5zm-22-519-71-40q20-27 43-50t50-43l40 71q-17 14-32.5 29.5t-29.5 32.5zm215 591q-32-3-63.5-11t-60.5-22l40-70q20 8 41 13.5t43 8.5zm-84-693-40-70q29-14 60.5-22t63.5-11v81q-22 3-43 8.5t-41 13.5zm164 693v-81q22-3 43-8.5t41-13.5l40 70q-29 14-60.5 22t-63.5 11zm84-693q-20-8-41-13.5t-43-8.5v-81q32 3 63.5 11t60.5 22zm109 621-40-71q17-14 32.5-29.5t29.5-32.5l71 40q-20 27-43 50.5t-50 42.5zm22-519q-14-17-29.5-32.5t-32.5-29.5l40-71q27 19 50 42t42 50zm62 153q-3-22-8.5-43t-13.5-41l70-41q13 30 21.5 61.5t11.5 63.5zm48 204-70-40q8-20 13.5-41t8.5-43h81q-3 32-11 63.5t-22 60.5z"/></svg>