<svg width="40" height="44" viewBox="0 0 40 44" fill="none" xmlns="http://www.w3.org/2000/svg">
<path d="M2 12H30V16H2V12ZM31 22L22 26C22 26 22 30 22 32C22 39.83 28.44 43.486 31 44C33.56 43.486 40 39.83 40 32C40 30 40 26 40 26L31 22Z" fill="url(#paint0_linear_25_531)"/>
<path opacity="0.3" d="M30 26.822L26 28.6V32C26 34.77 27.182 36.708 28.488 38H30V26.822ZM18 32V23.4L30 18.068V2H2V38H19.096C18.422 36.244 18 34.258 18 32Z" fill="url(#paint1_linear_25_531)"/>
<path d="M18.474 36H4V28H18V24H4V4H28V18.97L32 17.198V4C32 1.79 30.21 0 28 0H4C1.79 0 0 1.79 0 4V36C0 38.21 1.79 40 4 40H20.01C19.348 38.812 18.826 37.474 18.474 36Z" fill="url(#paint2_linear_25_531)"/>
<defs>
<linearGradient id="paint0_linear_25_531" x1="2" y1="28" x2="30.1051" y2="11.3237" gradientUnits="userSpaceOnUse">
<stop stop-color="#FFE7E0"/>
<stop offset="0.34375" stop-color="#F8DBF4"/>
<stop offset="0.6875" stop-color="#C4DDFF"/>
<stop offset="1" stop-color="#CAE9FF"/>
</linearGradient>
<linearGradient id="paint1_linear_25_531" x1="2" y1="20" x2="26.326" y2="10.5462" gradientUnits="userSpaceOnUse">
<stop stop-color="#FFE7E0"/>
<stop offset="0.34375" stop-color="#F8DBF4"/>
<stop offset="0.6875" stop-color="#C4DDFF"/>
<stop offset="1" stop-color="#CAE9FF"/>
</linearGradient>
<linearGradient id="paint2_linear_25_531" x1="9.53038e-07" y1="20" x2="27.5913" y2="8.97085" gradientUnits="userSpaceOnUse">
<stop stop-color="#FFE7E0"/>
<stop offset="0.34375" stop-color="#F8DBF4"/>
<stop offset="0.6875" stop-color="#C4DDFF"/>
<stop offset="1" stop-color="#CAE9FF"/>
</linearGradient>
</defs>
</svg>
