<svg fill="none" viewBox="0 0 50 39" xmlns="http://www.w3.org/2000/svg" xmlns:xlink="http://www.w3.org/1999/xlink"><linearGradient id="a"><stop offset="0" stop-color="#ffe7e0"/><stop offset=".34375" stop-color="#f8dbf4"/><stop offset=".6875" stop-color="#c4ddff"/><stop offset="1" stop-color="#cae9ff"/></linearGradient><linearGradient id="c" gradientUnits="userSpaceOnUse" x1="1.66675" x2="33.7868" xlink:href="#a" y1="19.5316" y2="-2.08418"/><linearGradient id="d" gradientUnits="userSpaceOnUse" x1="14.5933" x2="23.9367" xlink:href="#a" y1="19.9997" y2="9.60962"/><linearGradient id="e" gradientUnits="userSpaceOnUse" x1="28.4907" x2="34.6287" xlink:href="#a" y1="20.028" y2="17.7278"/><linearGradient id="f" gradientUnits="userSpaceOnUse" x1=".166748" x2="34.7901" xlink:href="#a" y1="19.5317" y2="-3.29058"/><linearGradient id="g" gradientUnits="userSpaceOnUse" x1="13.3334" x2="14.2322" xlink:href="#a" y1="30.5001" y2="26.0096"/><clipPath id="b"><path d="m0 0h50v39h-50z"/></clipPath><g clip-path="url(#b)"><path d="m32.0001 31.6667 2.5177 4.7694c.1517.2893.497.4176.819.4176.0117 0 .021 0 .0327-.0023 1.834-.0583 9.8816-1.4233 12.831-6.6313.0886-.1517.133-.3244.133-.504 0-10.0427-4.2724-21.65798-6.4657-23.68798-2.107-1.7034-4.7017-2.9074-6.7013-3.668-.7164-.273-1.5237-.1774-2.156.259-.6324.434-1.0104 1.1526-1.0104 1.9203 0 .8073-.6533 1.4607-1.4606 1.4607-3.668 0-7.4107 0-11.081 0-.805 0-1.4584-.6534-1.4584-1.4584 0-.7676-.378-1.4863-1.0103-1.9226-.6323-.4364-1.4397-.532-2.156-.2567-2.0067.7677-4.6153 1.9833-6.75274 3.71-2.14198 1.9857-6.41431 13.60338-6.41431 23.64598 0 .1774.04433.35.133.504 2.95166 5.2104 10.99935 6.573 12.83105 6.6313.0117.0024.021.0024.0327.0024.3243 0 .6673-.1307.819-.4177l2.5176-4.7717z" fill="url(#c)" opacity=".3"/><path d="m18.0933 24.6387c-1.9343 0-3.5-2.0837-3.5-4.6574 0-2.5736 1.5657-4.6573 3.5-4.6573 1.9414-.2567 3.458 2.0837 3.5 4.6573 0 2.5737-1.5656 4.6574-3.5 4.6574z" fill="url(#d)"/><path d="m31.9906 24.6946c1.933 0 3.5-2.0893 3.5-4.6666 0-2.5774-1.567-4.6667-3.5-4.6667s-3.5 2.0893-3.5 4.6667c0 2.5773 1.567 4.6666 3.5 4.6666z" fill="url(#e)"/><g clip-rule="evenodd" fill-rule="evenodd"><path d="m32.1601 1.38347c1.0398-.71691 2.3646-.872816 3.5396-.425356 2.0651.785516 4.827 2.056936 7.1111 3.903516l.039.03155.0368.03408c.7854.72685 1.5661 2.07868 2.2779 3.61605.7434 1.60579 1.5065 3.62839 2.1937 5.88749 1.3711 4.5079 2.4753 10.0742 2.4753 15.2853 0 .4251-.1051.8577-.3318 1.2503-1.7274 3.0444-4.8596 4.8523-7.5985 5.9013-2.7138 1.0393-5.3082 1.4353-6.4316 1.481-.0733.0058-.1242.0051-.1335.005h-.0013c-.6119 0-1.6314-.2386-2.1467-1.2195l-.0008-.0015-2.5158-4.7658 2.6531-1.4005 2.3047 4.3659c.9555-.084 3.016-.4302 5.1989-1.2662 2.4373-.9335 4.7634-2.3769 6.003-4.4779-.018-4.7965-1.0434-10.0045-2.3452-14.2844-.6551-2.1537-1.3714-4.0432-2.0459-5.50008-.6841-1.47769-1.2458-2.33222-1.5633-2.64611-1.9224-1.54121-4.3268-2.66563-6.2456-3.3955-.257-.0979-.5465-.06323-.7707.09152l-.0033.00225c-.2241.15382-.3591.40945-.3591.68353 0 1.6356-1.3248 2.9607-2.9606 2.9607h-11.081c-1.6335 0-2.9584-1.32497-2.9584-2.9584 0-.27337-.1348-.53103-.3622-.68799-.2242-.15473-.5115-.18898-.766-.09116l-.0022.00083c-1.9248.73639-4.3447 1.87232-6.29882 3.43787-.30372.30235-.8554 1.1454-1.533 2.61825-.66784 1.45159-1.3796 3.33779-2.03169 5.48959-1.29582 4.2759-2.32121 9.4848-2.3392 14.2813 1.24067 2.1023 3.56747 3.5457 6.00459 4.4788 2.18242.8356 4.24222 1.1814 5.19732 1.2654l2.3045-4.3679 2.6533 1.4-2.5181 4.7727c-.5126.9697-1.5209 1.2167-2.1451 1.2167h-.0014c-.0091.0001-.0607.0008-.1355-.0052-1.1232-.0461-3.7155-.4416-6.4277-1.48-2.74011-1.0491-5.87397-2.8579-7.6021-5.9053-.222702-.389-.330052-.8192-.330052-1.2472 0-5.2109 1.104072-10.7774 2.468382-15.2794.68374-2.2562 1.44168-4.2743 2.17734-5.87336.70298-1.52798 1.47434-2.87528 2.24882-3.59326l.03744-.0347.03971-.03209c2.31259-1.86823 5.08636-3.15108 7.15936-3.944153 1.1775-.451735 2.5041-.294481 3.5439.423073 1.0257.70776 1.6446 1.86949 1.6581 3.1156h11.0005c.0127-1.24586.6309-2.40977 1.6598-3.11664z" fill="url(#f)"/><path d="m11.92 28.8309c.2774-.7806 1.1352-1.1884 1.9157-.911 4.2871 1.5239 7.6422 2.2473 10.9988 2.247 3.3617-.0003 6.8323-.7263 11.3517-2.2546.7847-.2653 1.636.1557 1.9014.9405s-.1557 1.6361-.9404 1.9015c-4.6787 1.582-8.4962 2.4123-12.3124 2.4126-3.8213.0003-7.5339-.8314-12.0038-2.4202-.7806-.2775-1.1885-1.1352-.911-1.9158z" fill="url(#g)"/></g></g></svg>