<svg fill="none" viewBox="0 0 50 39" xmlns="http://www.w3.org/2000/svg" xmlns:xlink="http://www.w3.org/1999/xlink"><linearGradient id="a"><stop offset="0" stop-color="#ffe7e0"/><stop offset=".344" stop-color="#f8dbf4"/><stop offset=".688" stop-color="#c4ddff"/><stop offset="1" stop-color="#cae9ff"/></linearGradient><linearGradient id="c" gradientUnits="userSpaceOnUse" x1="1.667" x2="33.787" xlink:href="#a" y1="19.532" y2="-2.084"/><linearGradient id="d" gradientUnits="userSpaceOnUse" x1="14.593" x2="23.937" xlink:href="#a" y1="20" y2="9.61"/><linearGradient id="e" gradientUnits="userSpaceOnUse" x1="28.491" x2="34.629" xlink:href="#a" y1="20.028" y2="17.728"/><linearGradient id="f" gradientUnits="userSpaceOnUse" x1=".167" x2="34.79" xlink:href="#a" y1="19.532" y2="-3.291"/><linearGradient id="g" gradientUnits="userSpaceOnUse" x1="13.333" x2="14.232" xlink:href="#a" y1="30.5" y2="26.01"/><clipPath id="b"><path d="M0 0h50v39H0z"/></clipPath><g clip-path="url(#b)"><path d="m32 31.667 2.518 4.77c.152.288.497.417.819.417.012 0 .02 0 .033-.003 1.834-.058 9.881-1.423 12.83-6.63a.993.993 0 0 0 .134-.505c0-10.043-4.273-21.658-6.466-23.688-2.107-1.703-4.702-2.907-6.701-3.668A2.334 2.334 0 0 0 32 4.54 1.46 1.46 0 0 1 30.54 6H19.459A1.459 1.459 0 0 1 18 4.542c0-.768-.378-1.487-1.01-1.923a2.327 2.327 0 0 0-2.156-.257c-2.007.768-4.615 1.984-6.753 3.71C5.94 8.058 1.667 19.676 1.667 29.718a1 1 0 0 0 .133.504c2.951 5.21 11 6.573 12.83 6.632a.15.15 0 0 0 .034.002c.324 0 .667-.13.819-.418L18 31.667z" fill="url(#c)" opacity=".3"/><path d="M18.093 24.639c-1.934 0-3.5-2.084-3.5-4.658 0-2.573 1.566-4.657 3.5-4.657 1.942-.257 3.458 2.084 3.5 4.657 0 2.574-1.565 4.658-3.5 4.658z" fill="url(#d)"/><path d="M31.99 24.695c1.934 0 3.5-2.09 3.5-4.667s-1.566-4.667-3.5-4.667-3.5 2.09-3.5 4.667 1.568 4.667 3.5 4.667z" fill="url(#e)"/><g clip-rule="evenodd" fill-rule="evenodd"><path d="M32.16 1.383A3.834 3.834 0 0 1 35.7.958c2.065.786 4.827 2.057 7.11 3.904l.04.031.037.034c.785.727 1.566 2.079 2.278 3.616.743 1.606 1.506 3.629 2.193 5.888 1.371 4.508 2.476 10.074 2.476 15.285a2.5 2.5 0 0 1-.332 1.25c-1.728 3.045-4.86 4.853-7.599 5.902-2.714 1.039-5.308 1.435-6.431 1.48-.074.007-.125.006-.134.006h-.001c-.612 0-1.632-.239-2.147-1.22v-.001l-2.517-4.766 2.654-1.4 2.304 4.365c.956-.084 3.016-.43 5.2-1.266 2.436-.933 4.763-2.377 6.002-4.478-.018-4.796-1.043-10.004-2.345-14.284-.655-2.154-1.371-4.043-2.046-5.5-.684-1.478-1.246-2.332-1.563-2.646-1.923-1.542-4.327-2.666-6.246-3.396a.836.836 0 0 0-.77.092l-.004.002a.83.83 0 0 0-.359.683A2.96 2.96 0 0 1 30.54 7.5H19.459A2.959 2.959 0 0 1 16.5 4.542a.837.837 0 0 0-.362-.688.828.828 0 0 0-.766-.091h-.002c-1.925.737-4.345 1.873-6.3 3.438-.303.303-.855 1.146-1.532 2.619-.668 1.451-1.38 3.337-2.032 5.49-1.296 4.275-2.321 9.484-2.339 14.28 1.24 2.103 3.567 3.546 6.005 4.48 2.182.835 4.242 1.18 5.197 1.265l2.304-4.368 2.654 1.4-2.518 4.772c-.513.97-1.521 1.217-2.145 1.217h-.002c-.009 0-.06 0-.135-.005-1.124-.046-3.716-.442-6.428-1.48-2.74-1.05-5.874-2.858-7.602-5.905a2.505 2.505 0 0 1-.33-1.248c0-5.21 1.104-10.777 2.468-15.279.684-2.256 1.442-4.274 2.177-5.873.703-1.528 1.475-2.876 2.25-3.594l.037-.034.04-.032C9.45 3.037 12.224 1.755 14.297.96a3.827 3.827 0 0 1 3.544.424A3.837 3.837 0 0 1 19.5 4.5h11a3.829 3.829 0 0 1 1.66-3.117z" fill="url(#f)"/><path d="M11.92 28.83a1.5 1.5 0 0 1 1.916-.91c4.287 1.524 7.642 2.247 10.998 2.247 3.362 0 6.833-.726 11.352-2.255a1.5 1.5 0 0 1 .961 2.842c-4.678 1.582-8.496 2.413-12.312 2.413-3.821 0-7.534-.832-12.004-2.42a1.5 1.5 0 0 1-.911-1.916z" fill="url(#g)"/></g></g></svg>