<svg width="50" height="39" viewBox="0 0 50 39" fill="none" xmlns="http://www.w3.org/2000/svg">
<path opacity="0.3" d="M32 31.6667L34.5177 36.4361C34.6694 36.7254 35.0147 36.8537 35.3367 36.8537C35.3484 36.8537 35.3577 36.8537 35.3694 36.8514C37.2034 36.7931 45.251 35.4281 48.2004 30.2201C48.289 30.0684 48.3334 29.8957 48.3334 29.7161C48.3334 19.6734 44.061 8.05812 41.8677 6.02812C39.7607 4.32472 37.166 3.12072 35.1664 2.36012C34.45 2.08712 33.6427 2.18272 33.0104 2.61912C32.378 3.05312 32 3.77172 32 4.53942C32 5.34672 31.3467 6.00012 30.5394 6.00012C26.8714 6.00012 23.1287 6.00012 19.4584 6.00012C18.6534 6.00012 18 5.34672 18 4.54172C18 3.77412 17.622 3.05542 16.9897 2.61912C16.3574 2.18272 15.55 2.08712 14.8337 2.36242C12.827 3.13012 10.2184 4.34572 8.081 6.07242C5.93902 8.05812 1.66669 19.6758 1.66669 29.7184C1.66669 29.8958 1.71102 30.0684 1.79969 30.2224C4.75135 35.4328 12.799 36.7954 14.6307 36.8537C14.6424 36.8561 14.6517 36.8561 14.6634 36.8561C14.9877 36.8561 15.3307 36.7254 15.4824 36.4384L18 31.6667H32Z" fill="url(#paint0_linear_25_620)"/>
<path d="M32 31.6667L34.5177 36.4361C34.6694 36.7254 35.0147 36.8537 35.3367 36.8537C35.3484 36.8537 35.3577 36.8537 35.3694 36.8514C37.2034 36.7931 45.251 35.4281 48.2004 30.2201C48.289 30.0684 48.3334 29.8957 48.3334 29.7161C48.3334 19.6734 44.061 8.05812 41.8677 6.02812C39.7607 4.32472 37.166 3.12072 35.1664 2.36012C34.45 2.08712 33.6427 2.18272 33.0104 2.61912C32.378 3.05312 32 3.77172 32 4.53942C32 5.34672 31.3467 6.00012 30.5394 6.00012C26.8714 6.00012 23.1287 6.00012 19.4584 6.00012C18.6534 6.00012 18 5.34672 18 4.54172C18 3.77412 17.622 3.05542 16.9897 2.61912C16.3574 2.18272 15.55 2.08712 14.8337 2.36242C12.827 3.13012 10.2184 4.34572 8.081 6.07242C5.93902 8.05812 1.66669 19.6758 1.66669 29.7184C1.66669 29.8958 1.71102 30.0684 1.79969 30.2224C4.75135 35.4328 12.799 36.7954 14.6307 36.8537C14.6424 36.8561 14.6517 36.8561 14.6634 36.8561C14.9877 36.8561 15.3307 36.7254 15.4824 36.4384L18 31.6667" stroke="url(#paint1_linear_25_620)" stroke-width="3" stroke-miterlimit="10"/>
<path d="M18.0933 24.6387C16.159 24.6387 14.5933 22.555 14.5933 19.9813C14.5933 17.4077 16.159 15.324 18.0933 15.324C20.0347 15.0673 21.5513 17.4077 21.5933 19.9813C21.5933 22.555 20.0277 24.6387 18.0933 24.6387Z" fill="url(#paint2_linear_25_620)"/>
<path d="M31.9906 24.6946C33.9236 24.6946 35.4906 22.6053 35.4906 20.028C35.4906 17.4506 33.9236 15.3613 31.9906 15.3613C30.0576 15.3613 28.4906 17.4506 28.4906 20.028C28.4906 22.6053 30.0576 24.6946 31.9906 24.6946Z" fill="url(#paint3_linear_25_620)"/>
<path d="M13.3333 29.3333C22.0903 32.446 27.4686 32.4436 36.6666 29.3333" stroke="url(#paint4_linear_25_620)" stroke-width="3" stroke-miterlimit="10" stroke-linecap="round"/>
<defs>
<linearGradient id="paint0_linear_25_620" x1="1.66669" y1="19.5316" x2="33.7867" y2="-2.08418" gradientUnits="userSpaceOnUse">
<stop stop-color="#FFE7E0"/>
<stop offset="0.34375" stop-color="#F8DBF4"/>
<stop offset="0.6875" stop-color="#C4DDFF"/>
<stop offset="1" stop-color="#CAE9FF"/>
</linearGradient>
<linearGradient id="paint1_linear_25_620" x1="1.66669" y1="19.5316" x2="33.7867" y2="-2.08418" gradientUnits="userSpaceOnUse">
<stop stop-color="#FFE7E0"/>
<stop offset="0.34375" stop-color="#F8DBF4"/>
<stop offset="0.6875" stop-color="#C4DDFF"/>
<stop offset="1" stop-color="#CAE9FF"/>
</linearGradient>
<linearGradient id="paint2_linear_25_620" x1="14.5933" y1="19.9717" x2="20.7314" y2="17.6716" gradientUnits="userSpaceOnUse">
<stop stop-color="#FFE7E0"/>
<stop offset="0.34375" stop-color="#F8DBF4"/>
<stop offset="0.6875" stop-color="#C4DDFF"/>
<stop offset="1" stop-color="#CAE9FF"/>
</linearGradient>
<linearGradient id="paint3_linear_25_620" x1="28.4906" y1="20.028" x2="34.6286" y2="17.7278" gradientUnits="userSpaceOnUse">
<stop stop-color="#FFE7E0"/>
<stop offset="0.34375" stop-color="#F8DBF4"/>
<stop offset="0.6875" stop-color="#C4DDFF"/>
<stop offset="1" stop-color="#CAE9FF"/>
</linearGradient>
<linearGradient id="paint4_linear_25_620" x1="13.3333" y1="30.5001" x2="14.2321" y2="26.0096" gradientUnits="userSpaceOnUse">
<stop stop-color="#FFE7E0"/>
<stop offset="0.34375" stop-color="#F8DBF4"/>
<stop offset="0.6875" stop-color="#C4DDFF"/>
<stop offset="1" stop-color="#CAE9FF"/>
</linearGradient>
</defs>
</svg>
