<svg viewBox="0 0 48 45" fill="none" xmlns="http://www.w3.org/2000/svg"><path opacity=".3" d="M31 14v9.333H17V35h28V14H31Z" fill="url(#a)"/><path d="M28.667 0H5.333A4.68 4.68 0 0 0 .667 4.667v28l7-7h21A4.68 4.68 0 0 0 33.333 21V4.667A4.68 4.68 0 0 0 28.667 0Zm0 21H5.8l-.467.467v-16.8h23.334V21Z" fill="url(#b)"/><path d="M42.667 11.667H31v4.666h11.667v16.8l-.467-.466H19.333v-9.334h-4.666v9.334a4.68 4.68 0 0 0 4.666 4.666h21l7 7v-28a4.68 4.68 0 0 0-4.666-4.666Z" fill="url(#c)"/><path opacity=".3" d="M3 2.333h28v21H3v-21Z" fill="url(#d)"/><defs><linearGradient id="a" x1="17" y1="24.5" x2="36.393" y2="11.58" gradientUnits="userSpaceOnUse"><stop stop-color="#FFE7E0"/><stop offset=".344" stop-color="#F8DBF4"/><stop offset=".688" stop-color="#C4DDFF"/><stop offset="1" stop-color="#CAE9FF"/></linearGradient><linearGradient id="b" x1=".667" y1="16.333" x2="26.807" y2="3.272" gradientUnits="userSpaceOnUse"><stop stop-color="#FFE7E0"/><stop offset=".344" stop-color="#F8DBF4"/><stop offset=".688" stop-color="#C4DDFF"/><stop offset="1" stop-color="#CAE9FF"/></linearGradient><linearGradient id="c" x1="14.667" y1="28" x2="40.807" y2="14.939" gradientUnits="userSpaceOnUse"><stop stop-color="#FFE7E0"/><stop offset=".344" stop-color="#F8DBF4"/><stop offset=".688" stop-color="#C4DDFF"/><stop offset="1" stop-color="#CAE9FF"/></linearGradient><linearGradient id="d" x1="3" y1="12.833" x2="22.393" y2="-.087" gradientUnits="userSpaceOnUse"><stop stop-color="#FFE7E0"/><stop offset=".344" stop-color="#F8DBF4"/><stop offset=".688" stop-color="#C4DDFF"/><stop offset="1" stop-color="#CAE9FF"/></linearGradient></defs></svg>