<svg width="67" height="120" viewBox="0 0 67 120" fill="none" xmlns="http://www.w3.org/2000/svg">
<circle cx="11.5789" cy="23.1583" r="4.21053" fill="url(#paint0_linear_13_232)"/>
<circle cx="47.3684" cy="14.7364" r="4.21053" fill="url(#paint1_linear_13_232)"/>
<circle cx="35.7894" cy="37.8951" r="4.21053" fill="url(#paint2_linear_13_232)"/>
<circle cx="27.3685" cy="4.21053" r="4.21053" fill="url(#paint3_linear_13_232)"/>
<circle cx="15.7895" cy="55.6846" r="4.21053" fill="url(#paint4_linear_13_232)"/>
<path fill-rule="evenodd" clip-rule="evenodd" d="M0 56.8418V62.8568H3.00752L18.0451 87.7805V110.977H25.8282C25.0583 109.079 24.3218 107.064 24.0601 104.962V86.0535L10.1034 62.8568H44.0378L30.0752 86.0535V86.077C33.0707 82.6755 37.0044 80.1302 41.4826 78.846L51.1278 62.8568H54.1353V56.8418H51.1278H3.00752H0ZM48.1203 83.9095C38.1899 83.9095 30.0752 92.0242 30.0752 101.955C30.0752 111.885 38.1899 120 48.1203 120C58.0507 120 66.1654 111.885 66.1654 101.955C66.1654 92.0242 58.0507 83.9095 48.1203 83.9095ZM59.9826 93.7189C59.7601 92.1125 54.7593 93.055 53.4223 93.307C53.3157 93.3271 53.2325 93.3428 53.1767 93.3525C53.138 93.3591 53.1018 93.3258 53.1097 93.2869C53.1865 92.8983 53.2421 91.8475 52.5049 91.62C52.0337 91.4745 51.7228 91.7431 51.5384 92.014C51.4559 92.1355 51.2087 92.661 51.0552 93.0258C50.9724 93.2228 50.7797 93.5106 50.5679 93.5054C49.6795 93.2262 48.7872 93.0866 47.8948 93.0866C47.0026 93.0866 46.1101 93.2262 45.2217 93.5054C45.01 93.5106 44.8172 93.2228 44.7343 93.0258C44.5808 92.661 44.3338 92.1355 44.2512 92.014C44.0668 91.7431 43.7561 91.4745 43.2847 91.62C42.5475 91.8475 42.603 92.8983 42.68 93.2869C42.6877 93.3258 42.6516 93.3591 42.6128 93.3525C42.5572 93.3428 42.4741 93.3271 42.3677 93.3071C41.0315 93.0552 36.0296 92.1124 35.8068 93.7189C35.5788 95.364 37.6394 97.6327 39.7956 98.6523C39.9094 98.7062 40.0105 98.7803 40.1117 98.8545C40.1955 98.916 40.2795 98.9776 40.3708 99.0278C40.7102 99.2142 40.9126 99.6796 40.8629 100.099V105.977C42.5631 104.77 45.0623 104.018 47.8948 104.018C50.7274 104.018 53.2266 104.77 54.9268 105.977V100.099C54.877 99.6796 55.0793 99.2142 55.4187 99.0278C55.5103 98.9775 55.5944 98.9159 55.6783 98.8543L55.6784 98.8542C55.7794 98.7801 55.8803 98.7061 55.994 98.6523C58.1501 97.6327 60.211 95.364 59.9826 93.7189ZM45.8811 98.7762C46.6208 99.2883 46.8576 99.6657 46.8331 99.8145C46.8057 99.9626 46.4554 100.235 45.5868 100.461C44.9786 100.616 44.3458 100.673 43.7198 100.634C43.5727 100.625 43.4252 100.6 43.2887 100.544C43.0397 100.442 42.8291 100.266 42.6726 100.034C42.4611 99.7311 42.3604 99.3939 42.4249 99.0295C42.4878 98.6646 42.6965 98.3826 42.9978 98.1713C43.2235 98.0073 43.481 97.9147 43.7497 97.9046C43.8969 97.8992 44.044 97.9266 44.1852 97.9688C44.7868 98.1482 45.3619 98.421 45.8811 98.7762ZM53.1171 100.034C52.9606 100.266 52.75 100.442 52.501 100.544C52.3644 100.6 52.2169 100.625 52.0698 100.634C51.4438 100.673 50.8109 100.616 50.2029 100.461C49.3342 100.235 48.9839 99.9625 48.9565 99.8143C48.9321 99.6655 49.1688 99.2883 49.9085 98.7761C50.4277 98.421 51.0029 98.1482 51.6044 97.9688C51.7457 97.9266 51.8928 97.8992 52.04 97.9046C52.3087 97.9147 52.5662 98.0073 52.7918 98.1713C53.0931 98.3826 53.302 98.6647 53.3648 99.0296C53.4293 99.394 53.3286 99.7311 53.1171 100.034ZM47.8948 104.996C43.2681 104.996 39.5175 107.177 39.5175 109.867C39.5175 112.556 43.2681 114.737 47.8948 114.737C52.5216 114.737 56.2723 112.556 56.2723 109.867C56.2723 107.177 52.5215 104.996 47.8948 104.996ZM43.9297 110.364C43.2129 110.717 42.5454 110.364 42.4173 109.563C42.2771 108.705 43.4223 106.666 43.6858 108.208C43.8365 109.09 44.2849 108.762 44.6423 108.5C44.9096 108.304 45.1261 108.146 45.1292 108.559C45.0898 109.338 44.629 110.032 43.9297 110.364ZM53.3722 109.563C53.244 110.364 52.5765 110.717 51.8598 110.364C51.1605 110.032 50.6995 109.338 50.6605 108.559C50.6635 108.146 50.8799 108.304 51.1471 108.5C51.5045 108.762 51.9529 109.09 52.1037 108.208C52.3672 106.666 53.5123 108.705 53.3722 109.563Z" fill="url(#paint5_linear_13_232)"/>
<defs>
<linearGradient id="paint0_linear_13_232" x1="7.36841" y1="23.1583" x2="14.107" y2="19.7912" gradientUnits="userSpaceOnUse">
<stop stop-color="#FFE7E0"/>
<stop offset="0.34375" stop-color="#F8DBF4"/>
<stop offset="0.6875" stop-color="#C4DDFF"/>
<stop offset="1" stop-color="#CAE9FF"/>
</linearGradient>
<linearGradient id="paint1_linear_13_232" x1="43.1579" y1="14.7364" x2="49.8965" y2="11.3693" gradientUnits="userSpaceOnUse">
<stop stop-color="#FFE7E0"/>
<stop offset="0.34375" stop-color="#F8DBF4"/>
<stop offset="0.6875" stop-color="#C4DDFF"/>
<stop offset="1" stop-color="#CAE9FF"/>
</linearGradient>
<linearGradient id="paint2_linear_13_232" x1="31.5789" y1="37.8951" x2="38.3176" y2="34.528" gradientUnits="userSpaceOnUse">
<stop stop-color="#FFE7E0"/>
<stop offset="0.34375" stop-color="#F8DBF4"/>
<stop offset="0.6875" stop-color="#C4DDFF"/>
<stop offset="1" stop-color="#CAE9FF"/>
</linearGradient>
<linearGradient id="paint3_linear_13_232" x1="23.158" y1="4.21053" x2="29.8966" y2="0.843455" gradientUnits="userSpaceOnUse">
<stop stop-color="#FFE7E0"/>
<stop offset="0.34375" stop-color="#F8DBF4"/>
<stop offset="0.6875" stop-color="#C4DDFF"/>
<stop offset="1" stop-color="#CAE9FF"/>
</linearGradient>
<linearGradient id="paint4_linear_13_232" x1="11.579" y1="55.6846" x2="18.3176" y2="52.3176" gradientUnits="userSpaceOnUse">
<stop stop-color="#FFE7E0"/>
<stop offset="0.34375" stop-color="#F8DBF4"/>
<stop offset="0.6875" stop-color="#C4DDFF"/>
<stop offset="1" stop-color="#CAE9FF"/>
</linearGradient>
<linearGradient id="paint5_linear_13_232" x1="1.97057e-06" y1="88.4208" x2="51.9347" y2="61.235" gradientUnits="userSpaceOnUse">
<stop stop-color="#FFE7E0"/>
<stop offset="0.34375" stop-color="#F8DBF4"/>
<stop offset="0.6875" stop-color="#C4DDFF"/>
<stop offset="1" stop-color="#CAE9FF"/>
</linearGradient>
</defs>
</svg>
