<svg width="34" height="36" viewBox="0 0 34 36" fill="none" xmlns="http://www.w3.org/2000/svg">
<path opacity="0.2" d="M5.75 12.75H23.25V33.75H5.75V12.75Z" fill="url(#paint0_linear_25_488)"/>
<path d="M0.5 32H28.5V35.5H0.5V32Z" fill="url(#paint1_linear_25_488)"/>
<path d="M25 33.75H21.5V5.75C21.5 4.7 20.8 4 19.75 4H9.25C8.2 4 7.5 4.7 7.5 5.75V33.75H4V5.75C4 2.775 6.275 0.5 9.25 0.5H19.75C22.725 0.5 25 2.775 25 5.75V33.75Z" fill="url(#paint2_linear_25_488)"/>
<path d="M28.5 28.4999H23.25V24.9999H28.5C29.55 24.9999 30.25 24.2999 30.25 23.2499V11.6999L25.525 6.9749L27.975 4.5249L33.75 10.2999V23.2499C33.75 26.2249 31.475 28.4999 28.5 28.4999ZM5.75 10.9999H23.25V14.4999H5.75V10.9999Z" fill="url(#paint3_linear_25_488)"/>
<path d="M28.5 7.5V12.75C28.5 13.8 29.2 14.5 30.25 14.5H32V11L28.5 7.5Z" fill="url(#paint4_linear_25_488)"/>
<defs>
<linearGradient id="paint0_linear_25_488" x1="5.75" y1="23.25" x2="20.6642" y2="17.0399" gradientUnits="userSpaceOnUse">
<stop stop-color="#FFE7E0"/>
<stop offset="0.34375" stop-color="#F8DBF4"/>
<stop offset="0.6875" stop-color="#C4DDFF"/>
<stop offset="1" stop-color="#CAE9FF"/>
</linearGradient>
<linearGradient id="paint1_linear_25_488" x1="0.500001" y1="33.75" x2="2.14913" y2="27.1579" gradientUnits="userSpaceOnUse">
<stop stop-color="#FFE7E0"/>
<stop offset="0.34375" stop-color="#F8DBF4"/>
<stop offset="0.6875" stop-color="#C4DDFF"/>
<stop offset="1" stop-color="#CAE9FF"/>
</linearGradient>
<linearGradient id="paint2_linear_25_488" x1="4" y1="17.125" x2="23.098" y2="11.0981" gradientUnits="userSpaceOnUse">
<stop stop-color="#FFE7E0"/>
<stop offset="0.34375" stop-color="#F8DBF4"/>
<stop offset="0.6875" stop-color="#C4DDFF"/>
<stop offset="1" stop-color="#CAE9FF"/>
</linearGradient>
<linearGradient id="paint3_linear_25_488" x1="5.75" y1="16.5124" x2="26.6372" y2="4.32363" gradientUnits="userSpaceOnUse">
<stop stop-color="#FFE7E0"/>
<stop offset="0.34375" stop-color="#F8DBF4"/>
<stop offset="0.6875" stop-color="#C4DDFF"/>
<stop offset="1" stop-color="#CAE9FF"/>
</linearGradient>
<linearGradient id="paint4_linear_25_488" x1="28.5" y1="11" x2="31.7944" y2="10.177" gradientUnits="userSpaceOnUse">
<stop stop-color="#FFE7E0"/>
<stop offset="0.34375" stop-color="#F8DBF4"/>
<stop offset="0.6875" stop-color="#C4DDFF"/>
<stop offset="1" stop-color="#CAE9FF"/>
</linearGradient>
</defs>
</svg>
