<svg viewBox="0 0 48 48" fill="none" xmlns="http://www.w3.org/2000/svg"><path opacity=".3" d="M24 .667a23.333 23.333 0 1 0 0 46.666A23.333 23.333 0 0 0 24 .667Z" fill="url(#a)"/><path d="M21.433.9C10.7 2.067 2.067 10.7.9 21.2-.267 32.167 6.033 41.967 15.6 45.7c.7.233 1.4-.233 1.4-1.167V40.8s-.933.233-2.1.233c-3.267 0-4.667-2.8-4.9-4.433-.233-.933-.7-1.633-1.4-2.333-.7-.234-.933-.234-.933-.467 0-.467.7-.467.933-.467 1.4 0 2.567 1.634 3.033 2.334C12.8 37.533 14.2 38 14.9 38c.933 0 1.633-.233 2.1-.467.233-1.633.933-3.266 2.333-4.2C13.967 32.167 10 29.133 10 24c0-2.567 1.167-5.133 2.8-7-.233-.467-.467-1.633-.467-3.267 0-.933 0-2.333.7-3.733 0 0 3.267 0 6.534 3.033 1.166-.466 2.8-.7 4.433-.7s3.267.234 4.667.7C31.7 10 35.2 10 35.2 10c.467 1.4.467 2.8.467 3.733 0 1.867-.234 2.8-.467 3.267 1.633 1.867 2.8 4.2 2.8 7 0 5.133-3.967 8.167-9.333 9.333C30.067 34.5 31 36.6 31 38.7v6.067c0 .7.7 1.4 1.633 1.166 8.634-3.5 14.7-11.9 14.7-21.7 0-14-11.9-24.966-25.9-23.333Z" fill="url(#b)"/><defs><linearGradient id="a" x1=".667" y1="24" x2="38.01" y2="5.341" gradientUnits="userSpaceOnUse"><stop stop-color="#FFE7E0"/><stop offset=".344" stop-color="#F8DBF4"/><stop offset=".688" stop-color="#C4DDFF"/><stop offset="1" stop-color="#CAE9FF"/></linearGradient><linearGradient id="b" x1=".761" y1="23.359" x2="37.589" y2="4.415" gradientUnits="userSpaceOnUse"><stop stop-color="#FFE7E0"/><stop offset=".344" stop-color="#F8DBF4"/><stop offset=".688" stop-color="#C4DDFF"/><stop offset="1" stop-color="#CAE9FF"/></linearGradient></defs></svg>