<svg width="129" height="140" viewBox="0 0 129 140" fill="none" xmlns="http://www.w3.org/2000/svg">
<mask id="path-1-inside-1_13_271" fill="white">
<path d="M64.0426 0C59.0259 0 54.8936 4.12388 54.8936 9.13043C54.8936 13.0661 57.4635 16.42 60.9929 17.6902V30.4348C60.9872 30.8381 61.0619 31.2385 61.2126 31.6127C61.3632 31.987 61.587 32.3276 61.8707 32.6148C62.1545 32.902 62.4926 33.1301 62.8654 33.2858C63.2383 33.4414 63.6384 33.5216 64.0426 33.5216C64.4467 33.5216 64.8468 33.4414 65.2197 33.2858C65.5925 33.1301 65.9306 32.902 66.2144 32.6148C66.4981 32.3276 66.7219 31.987 66.8726 31.6127C67.0233 31.2385 67.0979 30.8381 67.0922 30.4348V17.6902C70.6217 16.42 73.1915 13.0661 73.1915 9.13043C73.1915 4.12388 69.0593 0 64.0426 0ZM64.0426 6.08696C65.763 6.08696 67.0922 7.41352 67.0922 9.13043C67.0922 10.7856 65.8455 12.0474 64.2153 12.1382C64.1419 12.1336 64.0684 12.1316 63.9949 12.1323C63.9512 12.1333 63.9075 12.1353 63.8639 12.1382C62.2367 12.0445 60.9929 10.7835 60.9929 9.13043C60.9929 7.41352 62.3222 6.08696 64.0426 6.08696ZM9.14894 27.3913C4.13224 27.3913 0 31.5152 0 36.5217C0 41.5283 4.13224 45.6522 9.14894 45.6522C11.3212 45.6522 13.302 44.849 14.8789 43.5657L38.0789 57.3981C38.423 57.6034 38.8044 57.739 39.2011 57.7973C39.5977 57.8555 40.0021 57.8352 40.3909 57.7375C40.7797 57.6398 41.1454 57.4666 41.4672 57.2279C41.789 56.9891 42.0605 56.6894 42.2662 56.346C42.4719 56.0025 42.6078 55.6219 42.6662 55.2261C42.7245 54.8302 42.7042 54.4267 42.6063 54.0386C42.5084 53.6506 42.3348 53.2856 42.0956 52.9645C41.8564 52.6434 41.5561 52.3724 41.2119 52.1671L18.1013 38.3942C18.23 37.789 18.2979 37.1627 18.2979 36.5217C18.2979 31.5152 14.1656 27.3913 9.14894 27.3913ZM118.936 27.3913C113.919 27.3913 109.787 31.5152 109.787 36.5217C109.787 37.1627 109.855 37.789 109.984 38.3942L86.8732 52.1671C86.1781 52.5817 85.6766 53.2549 85.4789 54.0386C85.2811 54.8223 85.4035 55.6523 85.8189 56.346C86.2344 57.0396 86.909 57.5402 87.6942 57.7375C88.4795 57.9348 89.3112 57.8127 90.0062 57.3981L113.206 43.5657C114.783 44.849 116.764 45.6522 118.936 45.6522C123.953 45.6522 128.085 41.5283 128.085 36.5217C128.085 31.5152 123.953 27.3913 118.936 27.3913ZM9.14894 33.4783C10.8693 33.4783 12.1986 34.8048 12.1986 36.5217C12.1986 38.2387 10.8693 39.5652 9.14894 39.5652C7.42854 39.5652 6.09929 38.2387 6.09929 36.5217C6.09929 34.8048 7.42854 33.4783 9.14894 33.4783ZM118.936 33.4783C120.657 33.4783 121.986 34.8048 121.986 36.5217C121.986 38.2387 120.657 39.5652 118.936 39.5652C117.216 39.5652 115.887 38.2387 115.887 36.5217C115.887 34.8048 117.216 33.4783 118.936 33.4783ZM30.5501 87.393C29.9684 87.3899 29.398 87.5528 28.9061 87.8626L14.8611 96.4224C13.2867 95.1472 11.3136 94.3478 9.14894 94.3478C4.13224 94.3478 0 98.4717 0 103.478C0 108.485 4.13224 112.609 9.14894 112.609C14.1656 112.609 18.2979 108.485 18.2979 103.478C18.2979 102.831 18.2266 102.199 18.0954 101.588L32.0808 93.0579C32.6554 92.7194 33.1029 92.2023 33.3548 91.5857C33.6066 90.9691 33.6489 90.2871 33.4752 89.6442C33.3015 89.0013 32.9213 88.433 32.393 88.0264C31.8646 87.6198 31.2173 87.3973 30.5501 87.393ZM97.4398 87.3989C96.7819 87.4238 96.1497 87.6605 95.6377 88.0735C95.1257 88.4866 94.7614 89.0539 94.5992 89.6907C94.437 90.3274 94.4857 90.9995 94.7378 91.6064C94.99 92.2133 95.4322 92.7225 95.9983 93.0579L109.99 101.588C109.859 102.199 109.787 102.831 109.787 103.478C109.787 108.485 113.919 112.609 118.936 112.609C123.953 112.609 128.085 108.485 128.085 103.478C128.085 98.4717 123.953 94.3478 118.936 94.3478C116.772 94.3478 114.798 95.1472 113.224 96.4224L99.179 87.8626C98.6592 87.5369 98.053 87.3753 97.4398 87.3989ZM9.14894 100.435C10.8693 100.435 12.1986 101.761 12.1986 103.478C12.1986 105.195 10.8693 106.522 9.14894 106.522C7.42854 106.522 6.09929 105.195 6.09929 103.478C6.09929 101.761 7.42854 100.435 9.14894 100.435ZM118.936 100.435C120.657 100.435 121.986 101.761 121.986 103.478C121.986 105.195 120.657 106.522 118.936 106.522C117.216 106.522 115.887 105.195 115.887 103.478C115.887 101.761 117.216 100.435 118.936 100.435ZM63.9949 103.437C63.1871 103.449 62.4174 103.781 61.8546 104.36C61.2917 104.938 60.9819 105.716 60.9929 106.522V122.31C57.4635 123.58 54.8936 126.934 54.8936 130.87C54.8936 135.876 59.0259 140 64.0426 140C69.0593 140 73.1915 135.876 73.1915 130.87C73.1915 126.934 70.6217 123.58 67.0922 122.31V106.522C67.0978 106.115 67.0215 105.71 66.8677 105.333C66.714 104.956 66.4859 104.613 66.1971 104.326C65.9083 104.038 65.5646 103.811 65.1863 103.658C64.808 103.506 64.4029 103.43 63.9949 103.437ZM63.8698 127.862C63.9869 127.868 64.1042 127.868 64.2212 127.862C65.8484 127.955 67.0922 129.216 67.0922 130.87C67.0922 132.586 65.763 133.913 64.0426 133.913C62.3222 133.913 60.9929 132.586 60.9929 130.87C60.9929 129.214 62.2396 127.953 63.8698 127.862Z"/>
</mask>
<path d="M64.0426 0C59.0259 0 54.8936 4.12388 54.8936 9.13043C54.8936 13.0661 57.4635 16.42 60.9929 17.6902V30.4348C60.9872 30.8381 61.0619 31.2385 61.2126 31.6127C61.3632 31.987 61.587 32.3276 61.8707 32.6148C62.1545 32.902 62.4926 33.1301 62.8654 33.2858C63.2383 33.4414 63.6384 33.5216 64.0426 33.5216C64.4467 33.5216 64.8468 33.4414 65.2197 33.2858C65.5925 33.1301 65.9306 32.902 66.2144 32.6148C66.4981 32.3276 66.7219 31.987 66.8726 31.6127C67.0233 31.2385 67.0979 30.8381 67.0922 30.4348V17.6902C70.6217 16.42 73.1915 13.0661 73.1915 9.13043C73.1915 4.12388 69.0593 0 64.0426 0ZM64.0426 6.08696C65.763 6.08696 67.0922 7.41352 67.0922 9.13043C67.0922 10.7856 65.8455 12.0474 64.2153 12.1382C64.1419 12.1336 64.0684 12.1316 63.9949 12.1323C63.9512 12.1333 63.9075 12.1353 63.8639 12.1382C62.2367 12.0445 60.9929 10.7835 60.9929 9.13043C60.9929 7.41352 62.3222 6.08696 64.0426 6.08696ZM9.14894 27.3913C4.13224 27.3913 0 31.5152 0 36.5217C0 41.5283 4.13224 45.6522 9.14894 45.6522C11.3212 45.6522 13.302 44.849 14.8789 43.5657L38.0789 57.3981C38.423 57.6034 38.8044 57.739 39.2011 57.7973C39.5977 57.8555 40.0021 57.8352 40.3909 57.7375C40.7797 57.6398 41.1454 57.4666 41.4672 57.2279C41.789 56.9891 42.0605 56.6894 42.2662 56.346C42.4719 56.0025 42.6078 55.6219 42.6662 55.2261C42.7245 54.8302 42.7042 54.4267 42.6063 54.0386C42.5084 53.6506 42.3348 53.2856 42.0956 52.9645C41.8564 52.6434 41.5561 52.3724 41.2119 52.1671L18.1013 38.3942C18.23 37.789 18.2979 37.1627 18.2979 36.5217C18.2979 31.5152 14.1656 27.3913 9.14894 27.3913ZM118.936 27.3913C113.919 27.3913 109.787 31.5152 109.787 36.5217C109.787 37.1627 109.855 37.789 109.984 38.3942L86.8732 52.1671C86.1781 52.5817 85.6766 53.2549 85.4789 54.0386C85.2811 54.8223 85.4035 55.6523 85.8189 56.346C86.2344 57.0396 86.909 57.5402 87.6942 57.7375C88.4795 57.9348 89.3112 57.8127 90.0062 57.3981L113.206 43.5657C114.783 44.849 116.764 45.6522 118.936 45.6522C123.953 45.6522 128.085 41.5283 128.085 36.5217C128.085 31.5152 123.953 27.3913 118.936 27.3913ZM9.14894 33.4783C10.8693 33.4783 12.1986 34.8048 12.1986 36.5217C12.1986 38.2387 10.8693 39.5652 9.14894 39.5652C7.42854 39.5652 6.09929 38.2387 6.09929 36.5217C6.09929 34.8048 7.42854 33.4783 9.14894 33.4783ZM118.936 33.4783C120.657 33.4783 121.986 34.8048 121.986 36.5217C121.986 38.2387 120.657 39.5652 118.936 39.5652C117.216 39.5652 115.887 38.2387 115.887 36.5217C115.887 34.8048 117.216 33.4783 118.936 33.4783ZM30.5501 87.393C29.9684 87.3899 29.398 87.5528 28.9061 87.8626L14.8611 96.4224C13.2867 95.1472 11.3136 94.3478 9.14894 94.3478C4.13224 94.3478 0 98.4717 0 103.478C0 108.485 4.13224 112.609 9.14894 112.609C14.1656 112.609 18.2979 108.485 18.2979 103.478C18.2979 102.831 18.2266 102.199 18.0954 101.588L32.0808 93.0579C32.6554 92.7194 33.1029 92.2023 33.3548 91.5857C33.6066 90.9691 33.6489 90.2871 33.4752 89.6442C33.3015 89.0013 32.9213 88.433 32.393 88.0264C31.8646 87.6198 31.2173 87.3973 30.5501 87.393ZM97.4398 87.3989C96.7819 87.4238 96.1497 87.6605 95.6377 88.0735C95.1257 88.4866 94.7614 89.0539 94.5992 89.6907C94.437 90.3274 94.4857 90.9995 94.7378 91.6064C94.99 92.2133 95.4322 92.7225 95.9983 93.0579L109.99 101.588C109.859 102.199 109.787 102.831 109.787 103.478C109.787 108.485 113.919 112.609 118.936 112.609C123.953 112.609 128.085 108.485 128.085 103.478C128.085 98.4717 123.953 94.3478 118.936 94.3478C116.772 94.3478 114.798 95.1472 113.224 96.4224L99.179 87.8626C98.6592 87.5369 98.053 87.3753 97.4398 87.3989ZM9.14894 100.435C10.8693 100.435 12.1986 101.761 12.1986 103.478C12.1986 105.195 10.8693 106.522 9.14894 106.522C7.42854 106.522 6.09929 105.195 6.09929 103.478C6.09929 101.761 7.42854 100.435 9.14894 100.435ZM118.936 100.435C120.657 100.435 121.986 101.761 121.986 103.478C121.986 105.195 120.657 106.522 118.936 106.522C117.216 106.522 115.887 105.195 115.887 103.478C115.887 101.761 117.216 100.435 118.936 100.435ZM63.9949 103.437C63.1871 103.449 62.4174 103.781 61.8546 104.36C61.2917 104.938 60.9819 105.716 60.9929 106.522V122.31C57.4635 123.58 54.8936 126.934 54.8936 130.87C54.8936 135.876 59.0259 140 64.0426 140C69.0593 140 73.1915 135.876 73.1915 130.87C73.1915 126.934 70.6217 123.58 67.0922 122.31V106.522C67.0978 106.115 67.0215 105.71 66.8677 105.333C66.714 104.956 66.4859 104.613 66.1971 104.326C65.9083 104.038 65.5646 103.811 65.1863 103.658C64.808 103.506 64.4029 103.43 63.9949 103.437ZM63.8698 127.862C63.9869 127.868 64.1042 127.868 64.2212 127.862C65.8484 127.955 67.0922 129.216 67.0922 130.87C67.0922 132.586 65.763 133.913 64.0426 133.913C62.3222 133.913 60.9929 132.586 60.9929 130.87C60.9929 129.214 62.2396 127.953 63.8698 127.862Z" fill="url(#paint0_linear_13_271)" stroke="#0D3673" stroke-width="2" mask="url(#path-1-inside-1_13_271)"/>
<ellipse cx="65" cy="69.5" rx="37" ry="36.5" fill="#0D3673"/>
<path fill-rule="evenodd" clip-rule="evenodd" d="M74.5891 52.9846C76.9084 52.5494 85.5838 50.9214 85.9699 53.696C86.3661 56.5376 82.7909 60.4563 79.0504 62.2174C78.8532 62.3103 78.6782 62.4382 78.5028 62.5663C78.3572 62.6726 78.2113 62.7792 78.0524 62.8659C77.4637 63.188 77.1127 63.9919 77.1991 64.7169V74.8695C74.2496 72.7837 69.914 71.4858 65.0001 71.4858C60.0863 71.4858 55.7508 72.7837 52.8013 74.8694V64.7169C52.8876 63.9919 52.5364 63.188 51.9476 62.8659C51.7892 62.7793 51.6436 62.6729 51.4981 62.5667C51.3225 62.4385 51.1471 62.3104 50.9497 62.2174C47.2092 60.4562 43.6344 56.5376 44.0301 53.696C44.4166 50.9211 53.0938 52.5497 55.4118 52.9847C55.5963 53.0194 55.7405 53.0464 55.837 53.0631C55.9043 53.0747 55.9669 53.017 55.9535 52.9499C55.8199 52.2787 55.7236 50.4637 57.0026 50.0708C57.8203 49.8193 58.3593 50.2832 58.6792 50.7512C58.8225 50.9612 59.2511 51.8688 59.5174 52.4988C59.6611 52.8391 59.9956 53.3363 60.3628 53.3273C61.9041 52.845 63.4523 52.6038 65.0001 52.6038C66.5481 52.6038 68.0962 52.845 69.6373 53.3273C70.0047 53.3363 70.3391 52.8391 70.4827 52.4988C70.749 51.8688 71.1778 50.9612 71.3209 50.7512C71.6409 50.2832 72.1802 49.8193 72.9977 50.0708C74.2765 50.4637 74.1801 52.2787 74.0468 52.9499C74.0332 53.017 74.0958 53.0747 74.1631 53.0631C74.2598 53.0464 74.4042 53.0193 74.5891 52.9846ZM63.1582 64.2248C63.2008 63.9677 62.79 63.316 61.5067 62.4313C60.6061 61.8178 59.6083 61.3467 58.5648 61.0368C58.3198 60.9639 58.0646 60.9166 57.8092 60.9259C57.3431 60.9433 56.8965 61.1033 56.5049 61.3866C55.9822 61.7515 55.6201 62.2386 55.5109 62.8688C55.399 63.4983 55.5738 64.0808 55.9406 64.6038C56.2122 65.0043 56.5775 65.3083 57.0095 65.4849C57.2463 65.582 57.5022 65.6247 57.7575 65.6408C58.8434 65.7082 59.9411 65.6088 60.9962 65.342C62.503 64.9516 63.1107 64.4806 63.1582 64.2248ZM72.9908 65.4849C73.4228 65.3083 73.7881 65.0043 74.0596 64.6038C74.4265 64.0808 74.6012 63.4986 74.4893 62.8691C74.3803 62.2389 74.018 61.7515 73.4954 61.3865C73.104 61.1033 72.6572 60.9433 72.1911 60.9259C71.9357 60.9166 71.6805 60.9639 71.4355 61.0368C70.3919 61.3466 69.3942 61.8178 68.4935 62.4313C67.2103 63.316 66.7995 63.9675 66.8418 64.2245C66.8894 64.4804 67.4971 64.9516 69.0041 65.342C70.0589 65.6088 71.1569 65.7082 72.2428 65.6408C72.498 65.6247 72.754 65.582 72.9908 65.4849Z" fill="url(#paint1_linear_13_271)"/>
<path fill-rule="evenodd" clip-rule="evenodd" d="M50.4673 81.5874C50.4673 76.9412 56.9737 73.1748 65.0001 73.1748C73.0264 73.1748 79.5332 76.9413 79.5332 81.5874C79.5332 86.2336 73.0266 90 65.0001 90C56.9737 90 50.4673 86.2337 50.4673 81.5874ZM55.4979 81.0638C55.72 82.4472 56.8779 83.0572 58.1216 82.4472C59.3346 81.8732 60.1341 80.6744 60.2023 79.3287C60.1969 78.6155 59.8214 78.8893 59.3577 79.2274C58.7376 79.6795 57.9598 80.2466 57.6984 78.7229C57.2414 76.0594 55.2545 79.5818 55.4979 81.0638ZM71.8785 82.4472C73.1218 83.0572 74.2798 82.4472 74.5021 81.0638C74.7452 79.5818 72.7587 76.0594 72.3016 78.7229C72.04 80.2467 71.2621 79.6795 70.6422 79.2273C70.1786 78.8892 69.8032 78.6155 69.798 79.3287C69.8656 80.6744 70.6653 81.8732 71.8785 82.4472Z" fill="url(#paint2_linear_13_271)"/>
<defs>
<linearGradient id="paint0_linear_13_271" x1="3.81469e-06" y1="70" x2="105.945" y2="21.5682" gradientUnits="userSpaceOnUse">
<stop stop-color="#FFE7E0"/>
<stop offset="0.34375" stop-color="#F8DBF4"/>
<stop offset="0.6875" stop-color="#C4DDFF"/>
<stop offset="1" stop-color="#CAE9FF"/>
</linearGradient>
<linearGradient id="paint1_linear_13_271" x1="44" y1="70" x2="76.9345" y2="52.7209" gradientUnits="userSpaceOnUse">
<stop stop-color="#FFE7E0"/>
<stop offset="0.34375" stop-color="#F8DBF4"/>
<stop offset="0.6875" stop-color="#C4DDFF"/>
<stop offset="1" stop-color="#CAE9FF"/>
</linearGradient>
<linearGradient id="paint2_linear_13_271" x1="44" y1="70" x2="76.9345" y2="52.7209" gradientUnits="userSpaceOnUse">
<stop stop-color="#FFE7E0"/>
<stop offset="0.34375" stop-color="#F8DBF4"/>
<stop offset="0.6875" stop-color="#C4DDFF"/>
<stop offset="1" stop-color="#CAE9FF"/>
</linearGradient>
</defs>
</svg>
