<svg width="40" height="36" viewBox="0 0 40 36" fill="none" xmlns="http://www.w3.org/2000/svg">
<path d="M20 20C18.9391 20 17.9217 20.4214 17.1716 21.1716C16.4214 21.9217 16 22.9391 16 24C16 25.0609 16.4214 26.0783 17.1716 26.8284C17.9217 27.5786 18.9391 28 20 28C21.0609 28 22.0783 27.5786 22.8284 26.8284C23.5786 26.0783 24 25.0609 24 24C24 22.9391 23.5786 21.9217 22.8284 21.1716C22.0783 20.4214 21.0609 20 20 20ZM28 36V34C28 31.34 22.67 30 20 30C17.33 30 12 31.34 12 34V36H28ZM40 26V24.602C40 21.942 36.67 20.5 34 20.5C31.33 20.5 28 21.942 28 24.602V26H40ZM12 26V24.602C12 21.942 8.67 20.5 6 20.5C3.33 20.5 0 21.942 0 24.602V26H12ZM34 10C32.9391 10 31.9217 10.4214 31.1716 11.1716C30.4214 11.9217 30 12.9391 30 14C30 15.0609 30.4214 16.0783 31.1716 16.8284C31.9217 17.5786 32.9391 18 34 18C35.0609 18 36.0783 17.5786 36.8284 16.8284C37.5786 16.0783 38 15.0609 38 14C38 12.9391 37.5786 11.9217 36.8284 11.1716C36.0783 10.4214 35.0609 10 34 10V10ZM26 0C24.9391 0 23.9217 0.421427 23.1716 1.17157C22.4214 1.92172 22 2.93913 22 4C22 5.06087 22.4214 6.07828 23.1716 6.82843C23.9217 7.57857 24.9391 8 26 8C27.0609 8 28.0783 7.57857 28.8284 6.82843C29.5786 6.07828 30 5.06087 30 4C30 2.93913 29.5786 1.92172 28.8284 1.17157C28.0783 0.421427 27.0609 0 26 0ZM14 0C12.9391 0 11.9217 0.421427 11.1716 1.17157C10.4214 1.92172 10 2.93913 10 4C10 5.06087 10.4214 6.07828 11.1716 6.82843C11.9217 7.57857 12.9391 8 14 8C15.0609 8 16.0783 7.57857 16.8284 6.82843C17.5786 6.07828 18 5.06087 18 4C18 2.93913 17.5786 1.92172 16.8284 1.17157C16.0783 0.421427 15.0609 0 14 0ZM6 10C4.93913 10 3.92172 10.4214 3.17157 11.1716C2.42143 11.9217 2 12.9391 2 14C2 15.0609 2.42143 16.0783 3.17157 16.8284C3.92172 17.5786 4.93913 18 6 18C7.06087 18 8.07828 17.5786 8.82843 16.8284C9.57857 16.0783 10 15.0609 10 14C10 12.9391 9.57857 11.9217 8.82843 11.1716C8.07828 10.4214 7.06087 10 6 10V10Z" fill="url(#paint0_linear_25_624)"/>
<defs>
<linearGradient id="paint0_linear_25_624" x1="1.1913e-06" y1="18" x2="30.5757" y2="1.02486" gradientUnits="userSpaceOnUse">
<stop stop-color="#FFE7E0"/>
<stop offset="0.34375" stop-color="#F8DBF4"/>
<stop offset="0.6875" stop-color="#C4DDFF"/>
<stop offset="1" stop-color="#CAE9FF"/>
</linearGradient>
</defs>
</svg>
