<svg width="84" height="84" viewBox="0 0 84 84" fill="none" xmlns="http://www.w3.org/2000/svg">
<path d="M42.0163 3.16858e-06C33.7088 -0.00322305 25.5869 2.45729 18.6779 7.07035C11.7689 11.6834 6.38314 18.2418 3.20176 25.916C0.0203798 33.5902 -0.813687 42.0355 0.805049 50.1838C2.42379 58.3321 6.42261 65.8173 12.2958 71.6927C18.1689 77.5681 25.6526 81.5699 33.8002 83.1918C41.9479 84.8137 50.3935 83.9829 58.0689 80.8045C65.7444 77.6261 72.3049 72.2428 76.9206 65.3356C81.5363 58.4284 84 50.3075 84 42C83.9991 30.864 79.5761 20.1841 71.7033 12.3082C63.8305 4.43237 53.1523 0.00519232 42.0163 3.16858e-06V3.16858e-06ZM72.7554 44.2933H53.2511C52.6701 47.2039 51.0195 49.7911 48.6249 51.5447C46.2303 53.2983 43.2655 54.091 40.3153 53.7664C37.365 53.4418 34.6435 52.0235 32.6874 49.7913C30.7314 47.559 29.6827 44.6748 29.7484 41.7075C29.814 38.7402 30.9891 35.9052 33.042 33.7616C35.0948 31.618 37.8764 30.3215 40.8381 30.1276C43.7998 29.9338 46.7266 30.8568 49.0413 32.7145C51.3561 34.5723 52.8907 37.23 53.3425 40.1634H72.7391C73.2868 40.1634 73.812 40.381 74.1992 40.7682C74.5865 41.1555 74.804 41.6807 74.804 42.2283C74.804 42.776 74.5865 43.3012 74.1992 43.6885C73.812 44.0757 73.2868 44.2933 72.7391 44.2933H72.7554Z" fill="url(#paint0_linear_56_8)"/>
<defs>
<linearGradient id="paint0_linear_56_8" x1="2.50172e-06" y1="42" x2="67.2179" y2="8.41347" gradientUnits="userSpaceOnUse">
<stop stop-color="#FFE7E0"/>
<stop offset="0.109375" stop-color="#F8DBF4"/>
<stop offset="0.526042" stop-color="#C4DDFF"/>
<stop offset="1" stop-color="#CAE9FF"/>
</linearGradient>
</defs>
</svg>
