<svg fill="none" height="81" viewBox="0 0 84 81" width="84" xmlns="http://www.w3.org/2000/svg" xmlns:xlink="http://www.w3.org/1999/xlink"><linearGradient id="a" gradientUnits="userSpaceOnUse" x1=".000003" x2="66.1567" y1="40.409" y2="6.0512"><stop offset="0" stop-color="#ffe7e0"/><stop offset=".109375" stop-color="#f8dbf4"/><stop offset=".526042" stop-color="#c4ddff"/><stop offset="1" stop-color="#cae9ff"/></linearGradient><g fill="url(#a)"><path d="m79.0772 40.3848h-9.1081c-2.7204 0-4.9246 2.1207-4.9246 4.7381v12.7184c0 2.6173-2.2043 4.738-4.9247 4.738h-36.236c-2.7204 0-4.9247 2.1207-4.9247 4.7377v8.7629c0 2.6173 2.2043 4.738 4.9247 4.738h38.3333c2.7203 0 4.8935-2.1207 4.8935-4.738v-7.0303c0-2.6174 2.2042-4.4738 4.9246-4.4738h7.0402c2.7203 0 4.9246-2.1207 4.9246-4.7377v-14.7702c0-2.6174-2.2024-4.6831-4.9228-4.6831z"/><path d="m18.9573 22.9765c0-2.6174 2.2043-4.738 4.9247-4.738h36.214c2.72 0 4.9243-2.1207 4.9243-4.7378v-8.76286c0-2.61717-2.2043-4.73784-4.9243-4.73784h-38.3131c-2.7204 0-4.9246 2.12067-4.9246 4.73784v6.75216c0 2.6171-2.2043 4.7378-4.9246 4.7378h-7.00912c-2.7203 0-4.92458 2.1206-4.92458 4.7379v14.786c0 2.6174 2.21348 4.6314 4.93382 4.6314h9.10828c2.7203 0 4.9244-2.1207 4.9244-4.7377z"/><path d="m37.7139 31.1734h8.7489c2.8512 0 5.1643 2.2273 5.1643 4.9686v8.4168c0 2.7431-2.3149 4.9686-5.1643 4.9686h-8.7489c-2.8509 0-5.164-2.2273-5.164-4.9686v-8.4168c0-2.7431 2.315-4.9686 5.164-4.9686z"/></g></svg>