<svg width="24" height="24" viewBox="0 0 24 24" fill="none" xmlns="http://www.w3.org/2000/svg">
<path fill-rule="evenodd" clip-rule="evenodd" d="M21 11H24V13H21V11Z" fill="url(#paint0_linear_25_523)"/>
<path fill-rule="evenodd" clip-rule="evenodd" d="M0 11H3V13H0V11Z" fill="url(#paint1_linear_25_523)"/>
<path fill-rule="evenodd" clip-rule="evenodd" d="M13 0V3H11V0H13Z" fill="url(#paint2_linear_25_523)"/>
<path fill-rule="evenodd" clip-rule="evenodd" d="M19.0711 17.6569L21.1921 19.7779L19.7779 21.1921L17.6569 19.0711L19.0711 17.6569Z" fill="url(#paint3_linear_25_523)"/>
<path fill-rule="evenodd" clip-rule="evenodd" d="M4.22211 2.80789L6.34311 4.92889L4.92889 6.34311L2.80789 4.22211L4.22211 2.80789Z" fill="url(#paint4_linear_25_523)"/>
<path fill-rule="evenodd" clip-rule="evenodd" d="M17.6569 4.92889L19.7779 2.80789L21.1921 4.22211L19.0711 6.34311L17.6569 4.92889Z" fill="url(#paint5_linear_25_523)"/>
<path fill-rule="evenodd" clip-rule="evenodd" d="M2.80789 19.7779L4.92889 17.6569L6.34311 19.0711L4.22211 21.1921L2.80789 19.7779Z" fill="url(#paint6_linear_25_523)"/>
<path fill-rule="evenodd" clip-rule="evenodd" d="M12 7C9.23858 7 7 9.23858 7 12C7 14.7614 9.23858 17 12 17C14.7614 17 17 14.7614 17 12C17 9.23858 14.7614 7 12 7ZM5 12C5 8.13401 8.13401 5 12 5C15.866 5 19 8.13401 19 12C19 15.866 15.866 19 12 19C8.13401 19 5 15.866 5 12Z" fill="url(#paint7_linear_25_523)"/>
<path d="M10 12C10.5523 12 11 11.5523 11 11C11 10.4477 10.5523 10 10 10C9.44772 10 9 10.4477 9 11C9 11.5523 9.44772 12 10 12Z" fill="url(#paint8_linear_25_523)"/>
<path d="M14 12C14.5523 12 15 11.5523 15 11C15 10.4477 14.5523 10 14 10C13.4477 10 13 10.4477 13 11C13 11.5523 13.4477 12 14 12Z" fill="url(#paint9_linear_25_523)"/>
<path d="M12 15C13.105 15 14 14.105 14 13H10C10 14.105 10.895 15 12 15Z" fill="url(#paint10_linear_25_523)"/>
<path fill-rule="evenodd" clip-rule="evenodd" d="M13 21V24H11V21H13Z" fill="url(#paint11_linear_25_523)"/>
<path opacity="0.3" d="M12 18C15.3137 18 18 15.3137 18 12C18 8.68629 15.3137 6 12 6C8.68629 6 6 8.68629 6 12C6 15.3137 8.68629 18 12 18Z" fill="url(#paint12_linear_25_523)"/>
<defs>
<linearGradient id="paint0_linear_25_523" x1="21" y1="12" x2="22.9209" y2="10.5603" gradientUnits="userSpaceOnUse">
<stop stop-color="#FFE7E0"/>
<stop offset="0.34375" stop-color="#F8DBF4"/>
<stop offset="0.6875" stop-color="#C4DDFF"/>
<stop offset="1" stop-color="#CAE9FF"/>
</linearGradient>
<linearGradient id="paint1_linear_25_523" x1="8.93473e-08" y1="12" x2="1.92092" y2="10.5603" gradientUnits="userSpaceOnUse">
<stop stop-color="#FFE7E0"/>
<stop offset="0.34375" stop-color="#F8DBF4"/>
<stop offset="0.6875" stop-color="#C4DDFF"/>
<stop offset="1" stop-color="#CAE9FF"/>
</linearGradient>
<linearGradient id="paint2_linear_25_523" x1="11" y1="1.5" x2="12.8002" y2="0.900321" gradientUnits="userSpaceOnUse">
<stop stop-color="#FFE7E0"/>
<stop offset="0.34375" stop-color="#F8DBF4"/>
<stop offset="0.6875" stop-color="#C4DDFF"/>
<stop offset="1" stop-color="#CAE9FF"/>
</linearGradient>
<linearGradient id="paint3_linear_25_523" x1="17.6569" y1="19.4245" x2="20.4858" y2="18.011" gradientUnits="userSpaceOnUse">
<stop stop-color="#FFE7E0"/>
<stop offset="0.34375" stop-color="#F8DBF4"/>
<stop offset="0.6875" stop-color="#C4DDFF"/>
<stop offset="1" stop-color="#CAE9FF"/>
</linearGradient>
<linearGradient id="paint4_linear_25_523" x1="2.80789" y1="4.5755" x2="5.63682" y2="3.16198" gradientUnits="userSpaceOnUse">
<stop stop-color="#FFE7E0"/>
<stop offset="0.34375" stop-color="#F8DBF4"/>
<stop offset="0.6875" stop-color="#C4DDFF"/>
<stop offset="1" stop-color="#CAE9FF"/>
</linearGradient>
<linearGradient id="paint5_linear_25_523" x1="17.6569" y1="4.5755" x2="20.4858" y2="3.16198" gradientUnits="userSpaceOnUse">
<stop stop-color="#FFE7E0"/>
<stop offset="0.34375" stop-color="#F8DBF4"/>
<stop offset="0.6875" stop-color="#C4DDFF"/>
<stop offset="1" stop-color="#CAE9FF"/>
</linearGradient>
<linearGradient id="paint6_linear_25_523" x1="2.80789" y1="19.4245" x2="5.63682" y2="18.011" gradientUnits="userSpaceOnUse">
<stop stop-color="#FFE7E0"/>
<stop offset="0.34375" stop-color="#F8DBF4"/>
<stop offset="0.6875" stop-color="#C4DDFF"/>
<stop offset="1" stop-color="#CAE9FF"/>
</linearGradient>
<linearGradient id="paint7_linear_25_523" x1="5" y1="12" x2="16.203" y2="6.40224" gradientUnits="userSpaceOnUse">
<stop stop-color="#FFE7E0"/>
<stop offset="0.34375" stop-color="#F8DBF4"/>
<stop offset="0.6875" stop-color="#C4DDFF"/>
<stop offset="1" stop-color="#CAE9FF"/>
</linearGradient>
<linearGradient id="paint8_linear_25_523" x1="9" y1="11" x2="10.6004" y2="10.2003" gradientUnits="userSpaceOnUse">
<stop stop-color="#FFE7E0"/>
<stop offset="0.34375" stop-color="#F8DBF4"/>
<stop offset="0.6875" stop-color="#C4DDFF"/>
<stop offset="1" stop-color="#CAE9FF"/>
</linearGradient>
<linearGradient id="paint9_linear_25_523" x1="13" y1="11" x2="14.6004" y2="10.2003" gradientUnits="userSpaceOnUse">
<stop stop-color="#FFE7E0"/>
<stop offset="0.34375" stop-color="#F8DBF4"/>
<stop offset="0.6875" stop-color="#C4DDFF"/>
<stop offset="1" stop-color="#CAE9FF"/>
</linearGradient>
<linearGradient id="paint10_linear_25_523" x1="10" y1="14" x2="12.0013" y2="12" gradientUnits="userSpaceOnUse">
<stop stop-color="#FFE7E0"/>
<stop offset="0.34375" stop-color="#F8DBF4"/>
<stop offset="0.6875" stop-color="#C4DDFF"/>
<stop offset="1" stop-color="#CAE9FF"/>
</linearGradient>
<linearGradient id="paint11_linear_25_523" x1="11" y1="22.5" x2="12.8002" y2="21.9003" gradientUnits="userSpaceOnUse">
<stop stop-color="#FFE7E0"/>
<stop offset="0.34375" stop-color="#F8DBF4"/>
<stop offset="0.6875" stop-color="#C4DDFF"/>
<stop offset="1" stop-color="#CAE9FF"/>
</linearGradient>
<linearGradient id="paint12_linear_25_523" x1="6" y1="12" x2="15.6026" y2="7.20192" gradientUnits="userSpaceOnUse">
<stop stop-color="#FFE7E0"/>
<stop offset="0.34375" stop-color="#F8DBF4"/>
<stop offset="0.6875" stop-color="#C4DDFF"/>
<stop offset="1" stop-color="#CAE9FF"/>
</linearGradient>
</defs>
</svg>
