<svg fill="none" viewBox="0 0 18 18" xmlns="http://www.w3.org/2000/svg" xmlns:xlink="http://www.w3.org/1999/xlink"><linearGradient id="a"><stop offset="0" stop-color="#ffe7e0"/><stop offset=".34375" stop-color="#f8dbf4"/><stop offset=".6875" stop-color="#c4ddff"/><stop offset="1" stop-color="#cae9ff"/></linearGradient><linearGradient id="b" gradientUnits="userSpaceOnUse" x1="1" x2="13.8034" xlink:href="#a" y1="9.00002" y2="2.60258"/><linearGradient id="c" gradientUnits="userSpaceOnUse" x1="0" x2="14.4039" xlink:href="#a" y1="9.00002" y2="1.8029"/><linearGradient id="d" gradientUnits="userSpaceOnUse" x1="3.7019" x2="12.081" xlink:href="#a" y1="9.00001" y2="4.46367"/><g clip-rule="evenodd" fill-rule="evenodd"><path d="m17 3v12c0 1.1-.9 2-2 2h-12c-1.11 0-2-.9-2-2v-12c0-1.11.89-2 2-2h12c1.1 0 2 .89 2 2z" fill="url(#b)" opacity=".3"/><path d="m3 2c-.55272 0-1 .44728-1 1v12c0 .5527.44728 1 1 1h12c.5527 0 1-.4473 1-1v-12c0-.55272-.4473-1-1-1zm-3 1c0-1.65728 1.34272-3 3-3h12c1.6573 0 3 1.34272 3 3v12c0 1.6573-1.3427 3-3 3h-12c-1.65728 0-3-1.3427-3-3z" fill="url(#c)"/><path d="m10.3509 8.01 3.423-4.01h-1.311l-2.704 3.16-2.207-3.16h-3.85l3.941 5.633-3.737 4.367h1.333l3.001-3.516 2.458 3.516h3.839zm-4.785-3.022h1.487l5.631 8.024h-1.497z" fill="url(#d)"/></g></svg>