<svg width="48" height="38" viewBox="0 0 48 38" fill="none" xmlns="http://www.w3.org/2000/svg">
<path opacity="0.3" d="M47.3334 0.331055C45.5134 1.4114 41.8617 2.8837 39.715 3.3084C39.652 3.3247 39.6007 3.3457 39.54 3.3621C37.643 1.4907 35.0437 0.331055 32.1667 0.331055C26.3684 0.331055 21.6667 5.03271 21.6667 10.8311C21.6667 11.1367 21.641 11.6991 21.6667 11.9977C13.843 11.9977 7.8884 7.9004 3.61835 2.6644C3.15402 3.8311 2.95102 5.67441 2.95102 7.40571C2.95102 10.6747 5.50602 13.8854 9.4844 15.8757C8.7517 16.0647 7.9444 16.2001 7.1044 16.2001C5.74869 16.2001 4.31369 15.8431 3.00002 14.7604V14.8794C3.00002 19.4481 7.8487 22.5584 12.1607 23.4241C11.2857 23.9397 9.5217 23.9911 8.6607 23.9911C8.054 23.9911 5.90735 23.7134 5.33335 23.6061C6.5327 27.3511 10.8587 29.4557 14.9817 29.5304C11.757 32.0597 9.5194 32.9977 2.91602 32.9977H0.666687C4.83869 35.6717 10.1517 37.6667 15.4764 37.6667C32.813 37.6667 42.6667 24.4531 42.6667 11.9977C42.6667 11.7971 42.662 11.3771 42.655 10.9547C42.655 10.9127 42.6667 10.8731 42.6667 10.8311C42.6667 10.7681 42.648 10.7074 42.648 10.6444C42.641 10.3271 42.634 10.0307 42.627 9.8767C44.4704 8.5467 46.0687 6.8877 47.3334 4.9977C45.6417 5.7491 43.8264 6.2531 41.92 6.4817C43.866 5.3151 46.631 2.5337 47.3334 0.331055V0.331055Z" fill="url(#paint0_linear_25_577)"/>
<path d="M47.3334 0.331055C45.5134 1.4114 41.8617 2.8837 39.715 3.3084C39.652 3.3247 39.6007 3.3457 39.54 3.3621C37.643 1.4907 35.0437 0.331055 32.1667 0.331055C26.3684 0.331055 21.6667 5.03271 21.6667 10.8311C21.6667 11.1367 21.641 11.6991 21.6667 11.9977C13.843 11.9977 7.8884 7.9004 3.61835 2.6644C3.15402 3.8311 2.95102 5.67441 2.95102 7.40571C2.95102 10.6747 5.50602 13.8854 9.4844 15.8757C8.7517 16.0647 7.9444 16.2001 7.1044 16.2001C5.74869 16.2001 4.31369 15.8431 3.00002 14.7604V14.8794C3.00002 19.4481 7.8487 22.5584 12.1607 23.4241C11.2857 23.9397 9.5217 23.9911 8.6607 23.9911C8.054 23.9911 5.90735 23.7134 5.33335 23.6061C6.5327 27.3511 10.8587 29.4557 14.9817 29.5304C11.757 32.0597 9.5194 32.9977 2.91602 32.9977H0.666687C4.83869 35.6717 10.1517 37.6667 15.4764 37.6667C32.813 37.6667 42.6667 24.4531 42.6667 11.9977C42.6667 11.7971 42.662 11.3771 42.655 10.9547C42.655 10.9127 42.6667 10.8731 42.6667 10.8311C42.6667 10.7681 42.648 10.7074 42.648 10.6444C42.641 10.3271 42.634 10.0307 42.627 9.8767C44.4704 8.5467 46.0687 6.8877 47.3334 4.9977C45.6417 5.7491 43.8264 6.2531 41.92 6.4817C43.866 5.3151 46.631 2.5337 47.3334 0.331055V0.331055ZM38 11.9977C38 21.5177 31.1004 31.5954 18.246 32.8647C19.9867 31.6304 21.6667 29.8781 21.6667 29.8781C21.6667 29.8781 14.6667 23.6667 14.1417 15.5514C16.5567 16.2887 19.072 16.6644 21.6667 16.6644H26.3334V10.8311C26.3334 10.8287 26.3334 10.8287 26.3334 10.8287C26.338 7.6087 28.9467 5.0001 32.1667 5.0001C35.389 5.0001 38 7.61111 38 10.8334V11.9977Z" fill="url(#paint1_linear_25_577)"/>
<defs>
<linearGradient id="paint0_linear_25_577" x1="0.666688" y1="18.9989" x2="34.2385" y2="-1.96822" gradientUnits="userSpaceOnUse">
<stop stop-color="#FFE7E0"/>
<stop offset="0.34375" stop-color="#F8DBF4"/>
<stop offset="0.6875" stop-color="#C4DDFF"/>
<stop offset="1" stop-color="#CAE9FF"/>
</linearGradient>
<linearGradient id="paint1_linear_25_577" x1="0.666688" y1="18.9989" x2="34.2385" y2="-1.96822" gradientUnits="userSpaceOnUse">
<stop stop-color="#FFE7E0"/>
<stop offset="0.34375" stop-color="#F8DBF4"/>
<stop offset="0.6875" stop-color="#C4DDFF"/>
<stop offset="1" stop-color="#CAE9FF"/>
</linearGradient>
</defs>
</svg>
